<mxfile host="app.diagrams.net" agent="Mozilla/5.0 (Windows NT 10.0; Win64; x64) AppleWebKit/537.36 (KHTML, like Gecko) Chrome/129.0.0.0 Safari/537.36 Edg/129.0.0.0" version="24.7.16">
  <diagram name="第 1 页" id="Iyr59SaSJteHYpGV9M__">
    <mxGraphModel dx="879" dy="613" grid="1" gridSize="10" guides="1" tooltips="1" connect="1" arrows="1" fold="1" page="1" pageScale="1" pageWidth="827" pageHeight="1169" math="0" shadow="0">
      <root>
        <mxCell id="0" />
        <mxCell id="1" parent="0" />
        <mxCell id="0HscJDK9ijoEULKKqR28-112" value="" style="rounded=1;whiteSpace=wrap;html=1;fillColor=none;dashed=1;dashPattern=12 12;arcSize=8;" vertex="1" parent="1">
          <mxGeometry x="280" y="380" width="850" height="440" as="geometry" />
        </mxCell>
        <mxCell id="0HscJDK9ijoEULKKqR28-146" value="" style="rounded=1;whiteSpace=wrap;html=1;fillColor=none;dashed=1;dashPattern=12 12;arcSize=8;" vertex="1" parent="1">
          <mxGeometry x="280" y="245" width="850" height="118" as="geometry" />
        </mxCell>
        <mxCell id="0HscJDK9ijoEULKKqR28-158" value="" style="rounded=1;whiteSpace=wrap;html=1;gradientColor=#a8bba2;movable=1;resizable=1;rotatable=1;deletable=1;editable=1;locked=0;connectable=1;fontFamily=Times New Roman;arcSize=9;" vertex="1" parent="1">
          <mxGeometry x="290" y="253" width="430" height="97" as="geometry" />
        </mxCell>
        <mxCell id="0HscJDK9ijoEULKKqR28-164" value="" style="html=1;shadow=0;dashed=0;align=center;verticalAlign=middle;shape=mxgraph.arrows2.arrow;dy=0.56;dx=20.33;direction=north;notch=0;gradientColor=#E6E6E6;movable=1;resizable=1;rotatable=1;deletable=1;editable=1;locked=0;connectable=1;fontFamily=Times New Roman;" vertex="1" parent="1">
          <mxGeometry x="623.5" y="332" width="26" height="58" as="geometry" />
        </mxCell>
        <mxCell id="0HscJDK9ijoEULKKqR28-163" value="" style="rounded=1;whiteSpace=wrap;html=1;gradientColor=#a8bba2;movable=1;resizable=1;rotatable=1;deletable=1;editable=1;locked=0;connectable=1;fontFamily=Times New Roman;arcSize=9;" vertex="1" parent="1">
          <mxGeometry x="730.5" y="253" width="389.5" height="97" as="geometry" />
        </mxCell>
        <mxCell id="0HscJDK9ijoEULKKqR28-109" value="" style="html=1;shadow=0;dashed=0;align=center;verticalAlign=middle;shape=mxgraph.arrows2.arrow;dy=0.56;dx=20.33;direction=north;notch=0;gradientColor=#E6E6E6;movable=1;resizable=1;rotatable=1;deletable=1;editable=1;locked=0;connectable=1;fontFamily=Times New Roman;" vertex="1" parent="1">
          <mxGeometry x="1033" y="631" width="26" height="35" as="geometry" />
        </mxCell>
        <mxCell id="0HscJDK9ijoEULKKqR28-56" value="" style="rounded=1;whiteSpace=wrap;html=1;fillColor=none;dashed=1;dashPattern=12 12;" vertex="1" parent="1">
          <mxGeometry x="3" y="380" width="270" height="440" as="geometry" />
        </mxCell>
        <mxCell id="0HscJDK9ijoEULKKqR28-1" value="" style="edgeStyle=orthogonalEdgeStyle;rounded=0;orthogonalLoop=1;jettySize=auto;html=1;movable=1;resizable=1;rotatable=1;deletable=1;editable=1;locked=0;connectable=1;fontFamily=Times New Roman;" edge="1" parent="1" source="0HscJDK9ijoEULKKqR28-2" target="0HscJDK9ijoEULKKqR28-3">
          <mxGeometry relative="1" as="geometry" />
        </mxCell>
        <mxCell id="0HscJDK9ijoEULKKqR28-2" value="&lt;font style=&quot;&quot;&gt;&lt;span style=&quot;font-size: 14px;&quot;&gt;&lt;b&gt;SL_raw.bin真实地面终端固件&lt;/b&gt;&lt;/span&gt;&lt;/font&gt;" style="text;html=1;align=center;verticalAlign=middle;resizable=1;points=[];autosize=1;strokeColor=none;fillColor=none;movable=1;rotatable=1;deletable=1;editable=1;locked=0;connectable=1;fontFamily=Times New Roman;" vertex="1" parent="1">
          <mxGeometry x="55" y="334" width="200" height="29" as="geometry" />
        </mxCell>
        <mxCell id="0HscJDK9ijoEULKKqR28-3" value="" style="whiteSpace=wrap;html=1;gradientColor=#A8BBA2;rounded=1;movable=1;resizable=1;rotatable=1;deletable=1;editable=1;locked=0;connectable=1;fontFamily=Times New Roman;" vertex="1" parent="1">
          <mxGeometry x="44" y="390" width="221" height="241" as="geometry" />
        </mxCell>
        <mxCell id="0HscJDK9ijoEULKKqR28-4" value="&lt;b&gt;固件提取部分&lt;/b&gt;" style="text;html=1;align=center;verticalAlign=middle;whiteSpace=wrap;rounded=0;fontSize=13;movable=1;resizable=1;rotatable=1;deletable=1;editable=1;locked=0;connectable=1;fontFamily=Times New Roman;" vertex="1" parent="1">
          <mxGeometry x="59" y="390" width="184" height="30" as="geometry" />
        </mxCell>
        <mxCell id="0HscJDK9ijoEULKKqR28-5" value="" style="whiteSpace=wrap;html=1;gradientColor=#A8BBA2;rounded=1;movable=1;resizable=1;rotatable=1;deletable=1;editable=1;locked=0;connectable=1;fontFamily=Times New Roman;" vertex="1" parent="1">
          <mxGeometry x="44" y="664.5" width="221" height="111" as="geometry" />
        </mxCell>
        <mxCell id="0HscJDK9ijoEULKKqR28-15" value="" style="html=1;shadow=0;dashed=0;align=center;verticalAlign=middle;shape=mxgraph.arrows2.arrow;dy=0.56;dx=20.33;direction=north;notch=0;gradientColor=#E6E6E6;movable=1;resizable=1;rotatable=1;deletable=1;editable=1;locked=0;connectable=1;fontFamily=Times New Roman;" vertex="1" parent="1">
          <mxGeometry x="350.5" y="630" width="26" height="35" as="geometry" />
        </mxCell>
        <mxCell id="0HscJDK9ijoEULKKqR28-16" value="" style="rounded=1;whiteSpace=wrap;html=1;gradientColor=#a8bba2;movable=1;resizable=1;rotatable=1;deletable=1;editable=1;locked=0;connectable=1;fontFamily=Times New Roman;" vertex="1" parent="1">
          <mxGeometry x="290" y="389" width="410" height="241" as="geometry" />
        </mxCell>
        <mxCell id="0HscJDK9ijoEULKKqR28-17" value="" style="rounded=0;whiteSpace=wrap;html=1;dashed=1;dashPattern=8 8;gradientColor=#A8BBA2;movable=1;resizable=1;rotatable=1;deletable=1;editable=1;locked=0;connectable=1;fontFamily=Times New Roman;" vertex="1" parent="1">
          <mxGeometry x="418.5" y="399.5" width="154" height="220" as="geometry" />
        </mxCell>
        <mxCell id="0HscJDK9ijoEULKKqR28-18" value="&lt;font style=&quot;font-size: 13px;&quot;&gt;&lt;b&gt;污点数据输入&lt;/b&gt;&lt;/font&gt;" style="text;html=1;align=center;verticalAlign=middle;whiteSpace=wrap;rounded=0;movable=1;resizable=1;rotatable=1;deletable=1;editable=1;locked=0;connectable=1;fontFamily=Times New Roman;" vertex="1" parent="1">
          <mxGeometry x="333.5" y="404.5" width="60" height="30" as="geometry" />
        </mxCell>
        <mxCell id="0HscJDK9ijoEULKKqR28-19" value="&lt;font style=&quot;font-size: 13px;&quot;&gt;&lt;b&gt;模拟输出&lt;/b&gt;&lt;/font&gt;" style="text;html=1;align=center;verticalAlign=middle;whiteSpace=wrap;rounded=0;movable=1;resizable=1;rotatable=1;deletable=1;editable=1;locked=0;connectable=1;fontFamily=Times New Roman;" vertex="1" parent="1">
          <mxGeometry x="606.5" y="404.5" width="60" height="30" as="geometry" />
        </mxCell>
        <mxCell id="0HscJDK9ijoEULKKqR28-20" value="&lt;font style=&quot;font-size: 13px;&quot;&gt;&lt;span&gt;固件模拟处理层&lt;/span&gt;&lt;/font&gt;" style="text;html=1;align=center;verticalAlign=middle;whiteSpace=wrap;rounded=0;movable=1;resizable=1;rotatable=1;deletable=1;editable=1;locked=0;connectable=1;fontFamily=Times New Roman;fontStyle=1" vertex="1" parent="1">
          <mxGeometry x="445.5" y="404.5" width="110" height="30" as="geometry" />
        </mxCell>
        <mxCell id="0HscJDK9ijoEULKKqR28-21" value="" style="edgeStyle=orthogonalEdgeStyle;rounded=0;orthogonalLoop=1;jettySize=auto;html=1;movable=1;resizable=1;rotatable=1;deletable=1;editable=1;locked=0;connectable=1;fontFamily=Times New Roman;" edge="1" parent="1" target="0HscJDK9ijoEULKKqR28-26">
          <mxGeometry relative="1" as="geometry">
            <mxPoint x="560.5" y="464.5" as="sourcePoint" />
          </mxGeometry>
        </mxCell>
        <mxCell id="0HscJDK9ijoEULKKqR28-22" value="" style="edgeStyle=orthogonalEdgeStyle;rounded=0;orthogonalLoop=1;jettySize=auto;html=1;movable=1;resizable=1;rotatable=1;deletable=1;editable=1;locked=0;connectable=1;fontFamily=Times New Roman;" edge="1" parent="1" target="0HscJDK9ijoEULKKqR28-31">
          <mxGeometry relative="1" as="geometry">
            <mxPoint x="560.5" y="524.5" as="sourcePoint" />
          </mxGeometry>
        </mxCell>
        <mxCell id="0HscJDK9ijoEULKKqR28-23" value="" style="edgeStyle=orthogonalEdgeStyle;rounded=0;orthogonalLoop=1;jettySize=auto;html=1;movable=1;resizable=1;rotatable=1;deletable=1;editable=1;locked=0;connectable=1;fontFamily=Times New Roman;" edge="1" parent="1" target="0HscJDK9ijoEULKKqR28-32">
          <mxGeometry relative="1" as="geometry">
            <mxPoint x="560.5" y="584.5" as="sourcePoint" />
          </mxGeometry>
        </mxCell>
        <mxCell id="0HscJDK9ijoEULKKqR28-24" value="" style="edgeStyle=orthogonalEdgeStyle;rounded=0;orthogonalLoop=1;jettySize=auto;html=1;movable=1;resizable=1;rotatable=1;deletable=1;editable=1;locked=0;connectable=1;fontFamily=Times New Roman;" edge="1" parent="1" source="0HscJDK9ijoEULKKqR28-25">
          <mxGeometry relative="1" as="geometry">
            <mxPoint x="440.5" y="464.5" as="targetPoint" />
          </mxGeometry>
        </mxCell>
        <mxCell id="0HscJDK9ijoEULKKqR28-25" value="&lt;span style=&quot;color: rgb(51, 51, 51); font-size: 9.75pt;&quot;&gt;卫星时间配置&lt;/span&gt;" style="ellipse;whiteSpace=wrap;html=1;shadow=1;gradientColor=#CCCC00;movable=1;resizable=1;rotatable=1;deletable=1;editable=1;locked=0;connectable=1;fontFamily=Times New Roman;" vertex="1" parent="1">
          <mxGeometry x="318.5" y="444.5" width="90" height="40" as="geometry" />
        </mxCell>
        <mxCell id="0HscJDK9ijoEULKKqR28-26" value="&lt;span style=&quot;color: rgb(51, 51, 51); font-size: 9.75pt;&quot;&gt;调整量反馈&lt;/span&gt;" style="ellipse;whiteSpace=wrap;html=1;shadow=1;gradientColor=#CCCC00;movable=1;resizable=1;rotatable=1;deletable=1;editable=1;locked=0;connectable=1;fontFamily=Times New Roman;" vertex="1" parent="1">
          <mxGeometry x="591.5" y="444.5" width="90" height="40" as="geometry" />
        </mxCell>
        <mxCell id="0HscJDK9ijoEULKKqR28-27" value="" style="edgeStyle=orthogonalEdgeStyle;rounded=0;orthogonalLoop=1;jettySize=auto;html=1;movable=1;resizable=1;rotatable=1;deletable=1;editable=1;locked=0;connectable=1;fontFamily=Times New Roman;" edge="1" parent="1" source="0HscJDK9ijoEULKKqR28-28">
          <mxGeometry relative="1" as="geometry">
            <mxPoint x="440.5" y="524.5" as="targetPoint" />
          </mxGeometry>
        </mxCell>
        <mxCell id="0HscJDK9ijoEULKKqR28-28" value="&lt;span style=&quot;color: rgb(51, 51, 51); font-size: 9.75pt;&quot;&gt;HTTP&lt;/span&gt;&lt;span style=&quot;color: rgb(51, 51, 51); font-size: 9.75pt;&quot;&gt;请求&lt;/span&gt;" style="ellipse;whiteSpace=wrap;html=1;shadow=1;gradientColor=#CCCC00;movable=1;resizable=1;rotatable=1;deletable=1;editable=1;locked=0;connectable=1;fontFamily=Times New Roman;" vertex="1" parent="1">
          <mxGeometry x="318.5" y="504.5" width="90" height="40" as="geometry" />
        </mxCell>
        <mxCell id="0HscJDK9ijoEULKKqR28-29" value="" style="edgeStyle=orthogonalEdgeStyle;rounded=0;orthogonalLoop=1;jettySize=auto;html=1;movable=1;resizable=1;rotatable=1;deletable=1;editable=1;locked=0;connectable=1;fontFamily=Times New Roman;" edge="1" parent="1" source="0HscJDK9ijoEULKKqR28-30">
          <mxGeometry relative="1" as="geometry">
            <mxPoint x="440.5" y="584.5" as="targetPoint" />
          </mxGeometry>
        </mxCell>
        <mxCell id="0HscJDK9ijoEULKKqR28-30" value="&lt;span style=&quot;color: rgb(51, 51, 51); font-size: 9.75pt;&quot;&gt;系统输入事件&lt;/span&gt;" style="ellipse;whiteSpace=wrap;html=1;shadow=1;gradientColor=#CCCC00;movable=1;resizable=1;rotatable=1;deletable=1;editable=1;locked=0;connectable=1;fontFamily=Times New Roman;" vertex="1" parent="1">
          <mxGeometry x="318.5" y="564.5" width="90" height="40" as="geometry" />
        </mxCell>
        <mxCell id="0HscJDK9ijoEULKKqR28-31" value="&lt;span style=&quot;color: rgb(51, 51, 51); font-size: 9.75pt;&quot;&gt;HTTP&lt;/span&gt;&lt;span style=&quot;color: rgb(51, 51, 51); font-size: 9.75pt;&quot;&gt;响应&lt;/span&gt;" style="ellipse;whiteSpace=wrap;html=1;shadow=1;gradientColor=#CCCC00;movable=1;resizable=1;rotatable=1;deletable=1;editable=1;locked=0;connectable=1;fontFamily=Times New Roman;" vertex="1" parent="1">
          <mxGeometry x="591.5" y="504.5" width="90" height="40" as="geometry" />
        </mxCell>
        <mxCell id="0HscJDK9ijoEULKKqR28-32" value="&lt;span style=&quot;color: rgb(51, 51, 51); font-size: 9.75pt;&quot;&gt;跟踪分析报告&lt;/span&gt;" style="ellipse;whiteSpace=wrap;html=1;shadow=1;gradientColor=#CCCC00;movable=1;resizable=1;rotatable=1;deletable=1;editable=1;locked=0;connectable=1;fontFamily=Times New Roman;" vertex="1" parent="1">
          <mxGeometry x="591.5" y="564.5" width="90" height="40" as="geometry" />
        </mxCell>
        <mxCell id="0HscJDK9ijoEULKKqR28-33" value="" style="html=1;shadow=0;dashed=0;align=center;verticalAlign=middle;shape=mxgraph.arrows2.arrow;dy=0.56;dx=20.33;direction=north;notch=0;gradientColor=#E6E6E6;movable=1;resizable=1;rotatable=1;deletable=1;editable=1;locked=0;connectable=1;fontFamily=Times New Roman;" vertex="1" parent="1">
          <mxGeometry x="623.5" y="631" width="26" height="34" as="geometry" />
        </mxCell>
        <mxCell id="0HscJDK9ijoEULKKqR28-34" value="&lt;div style=&quot;&quot;&gt;&lt;span style=&quot;background-color: initial; color: rgb(51, 51, 51); font-size: 9.75pt;&quot;&gt;&lt;font&gt;提取&lt;/font&gt;&lt;/span&gt;&lt;span style=&quot;background-color: initial; color: rgb(51, 51, 51); font-size: 9.75pt;&quot;&gt;BL/DTB/kernel/rootfs/driver&lt;/span&gt;&lt;/div&gt;" style="shape=cylinder3;whiteSpace=wrap;html=1;boundedLbl=1;backgroundOutline=1;size=7.888905843098939;direction=south;gradientColor=none;fillColor=#E6E6E6;align=center;movable=1;resizable=1;rotatable=1;deletable=1;editable=1;locked=0;connectable=1;fontFamily=Times New Roman;" vertex="1" parent="1">
          <mxGeometry x="54" y="571.5" width="194" height="48" as="geometry" />
        </mxCell>
        <mxCell id="0HscJDK9ijoEULKKqR28-35" value="&lt;span style=&quot;color: rgb(51, 51, 51); font-size: 9.75pt;&quot;&gt;binwalk&lt;/span&gt;&lt;span style=&quot;color: rgb(51, 51, 51); font-size: 9.75pt;&quot;&gt;解压&lt;/span&gt;" style="shape=cylinder3;whiteSpace=wrap;html=1;boundedLbl=1;backgroundOutline=1;size=7.888905843098939;direction=south;gradientColor=none;fillColor=#E6E6E6;movable=1;resizable=1;rotatable=1;deletable=1;editable=1;locked=0;connectable=1;fontFamily=Times New Roman;" vertex="1" parent="1">
          <mxGeometry x="54" y="520" width="105" height="41" as="geometry" />
        </mxCell>
        <mxCell id="0HscJDK9ijoEULKKqR28-36" value="&lt;span style=&quot;color: rgb(51, 51, 51); font-size: 9.75pt;&quot;&gt;去&lt;/span&gt;&lt;span style=&quot;color: rgb(51, 51, 51); font-size: 9.75pt;&quot;&gt;ECC/&lt;/span&gt;&lt;div&gt;&lt;span style=&quot;color: rgb(51, 51, 51); font-size: 9.75pt;&quot;&gt;CRC&lt;/span&gt;&lt;span style=&quot;color: rgb(51, 51, 51); font-size: 9.75pt;&quot;&gt;校验&lt;/span&gt;&lt;br&gt;&lt;/div&gt;" style="shape=cylinder3;whiteSpace=wrap;html=1;boundedLbl=1;backgroundOutline=1;size=7.888905843098939;direction=south;gradientColor=none;fillColor=#E6E6E6;movable=1;resizable=1;rotatable=1;deletable=1;editable=1;locked=0;connectable=1;fontFamily=Times New Roman;" vertex="1" parent="1">
          <mxGeometry x="53" y="470" width="105" height="41" as="geometry" />
        </mxCell>
        <mxCell id="0HscJDK9ijoEULKKqR28-37" value="&lt;div&gt;&lt;span style=&quot;color: rgb(51, 51, 51);&quot;&gt;&lt;font style=&quot;font-size: 13px;&quot;&gt;块设备&lt;/font&gt;&lt;/span&gt;&lt;/div&gt;&lt;div&gt;&lt;span style=&quot;color: rgb(51, 51, 51);&quot;&gt;&lt;font style=&quot;font-size: 13px;&quot;&gt;地址划分&lt;/font&gt;&lt;/span&gt;&lt;br&gt;&lt;/div&gt;" style="shape=cylinder3;whiteSpace=wrap;html=1;boundedLbl=1;backgroundOutline=1;size=7.888905843098939;direction=south;gradientColor=none;fillColor=#E6E6E6;movable=1;resizable=1;rotatable=1;deletable=1;editable=1;locked=0;connectable=1;fontFamily=Times New Roman;" vertex="1" parent="1">
          <mxGeometry x="53" y="420" width="105" height="41" as="geometry" />
        </mxCell>
        <mxCell id="0HscJDK9ijoEULKKqR28-38" value="" style="shape=image;verticalLabelPosition=bottom;labelBackgroundColor=default;verticalAlign=top;aspect=fixed;imageAspect=0;image=data:image/png,iVBORw0KGgoAAAANSUhEUgAAAOcAAADICAYAAAATDvbDAAAAAXNSR0IArs4c6QAADEtJREFUeF7tnV1y2zYQgMmJ71H3LTOWz5D4JIlP0vQkcU4S9QymZvLW9BxWwgqu6DKyRPzsglwCX2byZBAEPuynJQiQbBv+QQACJgm0JltFoyAAgQY5CQIIGCWAnEYHhmZBADmJAQgYJYCcRgeGZkEAOYkBCBglgJxGB4ZmQQA5iQEIGCWAnEYHhmZBADmJAQgYJYCcRgeGZkEAOYkBCBglgJxGB4ZmQQA5iQEIGCWAnEYHhmZBADmJAQgYJYCcRgeGZkEAOYkBCBglgJxGB4ZmQQA5iQEIGCWAnEYHhmZBADmJAQgYJYCcRgeGZkEAOYkBCBglkCTn7e3tx58/f75rmuZ927bXRvtGsyDQ9H3/vW1b9//L09PT9tu3b9/XgiVKzs1m875pmj+clGvpIO2EwIjAdr/f369F0GA5j2J+ZaghUACBu67rttb7ESTn27dvr6+urv623hnaB4FQAvv9/nfrGTRIzpubm8+H6/aPoR2nHASsE+j7/mG3291bbqdXTrKm5eGjbRIC1rOnV87NZuNuAH2SQOBYCFgk0Lbt/ePj44PFtrk2IafVkaFd2QlYv7T1ysl8M3uMcIKFCCDnQuA5LQR8BJDTR4i/Q2AhAsi5EHhOCwEfAeT0EeLvEFiIAHIuBJ7TQsBHADl9hPg7BBYigJwLgee0EPARQM7DM2YOgg8Uf4dALAHpfm/kbJqm6zrvZofYgaE8BA5bS3sJBeRETkn8cOwEAeRUeFyMzIljOQggJ3LmiCvqVCCAnMipEEZUkYMAciJnjriiTgUCyImcCmFEFTkIICdy5ogr6lQggJzIqRBG/1fhXjHa9/2H8bt/1/rSY1UwCZUhJ3ImhM35QzabjXvvr++F3J8OS09/qp204IqQEznF4Z3wBsNPhzfDfbH+XlUxGGEFyImcwhBqmsCMeXoeMqiHPHIip0hOyatFrb9XVQRG4WDkRE5RGEkCyPrGbBEYhYMlbN3prfP1Pi2i8WrMWvfWanz8iex52WLkJHMm/8ZLLmlHJ2XueWEEkBM5JXKGLJ146yd7Xlya4nlO6RPnNV7WJiyfTElK9jxDh8xJ5vRmtnMFNOab43rJnq8pIydypsqp/XU2sufJSCAncqbKqTLfHE7e9/33Hz9+3LFr6P/hQE7kjJZTeb75cn7r35OMBiU8ADmRMzqEtOebowZsu667i25QoQcgJ3JGh7bS+ubZ83JjiMvaFwLsEIp2M3Wje9CJrG85C+qEUiEyJ5kzKpRyzTdZVmEp5RUBMmeUmy5ruoep3Z3anP9YVmmeH8VjhxA7hMI9yznfJHv+Og7IyWVtuJn//Zqrrm9OnFwte7pL8TWunyIncgbLOcd8UyN7jl8y1rbt9Xippm3bL09PT9s1yIqcyBks50zzzXF7orNnSGZfy24k5ETOGDm199NOnjtGomNW/xzw9r/xOe+6rtsGA5i5IHIiZ3DIhWSl4MoCC4Zu6UtpW4z8gc1VLYacyBkUUHPPN8fzRN+WPuHldvSlcxAwhULIiZxBYSQUIOgclwr5tvTd3Nz8fXLjJ+p8vvqjKlMsjJzIGRROc61vnmvM1JY+pR8Nk9kTOZEzVM651jfPtudSdpNmzeFkFrMnciKnV84F55uTyypKWXM4h7nsiZzI6ZVTWQLv+ULnnlpZ02r2RE7k9Mqy5HzzpHEv2S3TD4ap7ImcyBki56LzzXEDh7mhdta0mD2REzkn5dSab7oFf8lyx6iRn5qm+SvjY2tmsidyIueknBqXj0cxHw4ncmKJ/rm6XAVKokfdGRY1POFg5EROn5wa+2mfs1GuS9GEuPcdYiJ7Iidy+uTUmG8+B7uhG0s+ORsL657IaUDO47zugzdiIgscNo3/4y4DU5+80JpvDt+ScfW9efPma85L0khEF4u7XUmHN2Q8X0In/vsrlftwPuQ0IOft7e3Hvu/d4065/m1THjLWmm/udrvfh45pvLMpFyTNekOfppk6J3LWIecQA9v9fn8f+hYApcvQX+ZvGsJrSpSrLuT0k13Fl61nyJwvpGKeYUx5RvLMkLy6uVJD9kRO5PQTOF/CezdSe745bkYN2RM5/aFJ5rzAyHc3UkMgl6XH881xU1a0rOKPsjMlkNOPDTkvM5r8aFCO+ea4KXNeyvvDRL8EcvqZIucEo6kAyjXfrCV7Iidy+glMlLh0cyjnfPNk7qmx+0jEINfByOknS+b0M3p1cyj3fLOG7Imc/sBDTj+jV1vVcs83a8ieyOkPPOT0M3IlTjcKqO2n9Z0+95Y+zSdifH0Z/x05/bSQ08/oucSwtDLXfPPk0vaz9Etvl7o5SDL30g1y+gMPOf2MhhLPSytzzjeHE2uc81w3x+usSpfqwTSR048KOf2MXkq4gDpswP/NXeZGHHauqHcH0ulBObb0nQoyp6DI6Y8g5PQzeimh+JaBaDm1s+el3UlO0MPfPuZ+bA05/YGHnH5G6iWG5zdjK9acF07JcbwJ5dZY3+eSFDn9o78KOV03XMD4u3O+xNXV1bV7HjRXoMW0a2o/ra8erS19sW2QsL/Up9DH8qaY8Dyngec5fUEb8vc551Oe9kRf0o7r08ieGlkrhHnuMshZiJwuUDQCWyHgRHJKf2Ris6ZCf7NVgZwFySkNbI0oS51vamXPUrKm44GcBcm5dPbUylqCH5nJx+A0fnzmrAM5C5NT66ZKYhCKLmlPsmfUriGtH4bEfmc5DDkLk/N4OaSxNzYl4NTkPF4FhAoa9eKylI4tcQxyFihn7s3klwJVY755Wvdxc8LzmuSF86r+ICwh4aVzImeBch6z56wPMue+rDxK6rr2TvqybEsCTrUFOQuVc4GbQ8VmsKVkRs6C5RTc9UyJR+RMoTZxDHIWLOec2TPHfFM51ldXHXIWLuccSyu555urs0qpwchZuJwzLa1wSask5Lga5KxAzhmWVpATOaMJrOaRseieRR6Q8+YQ883IwQgsTuasIHMOsZDjqRXmm4GmJRRDzorkzJQ9uaRNEC/kEOSsSM5MSyvIGWJaQhnkrExO7aUV5psJ1gUegpyVyam5tMJ8M9CyxGLIWaGciksrXNImihdyGHJWKOcxe2o8tYKcIZYllkHOSuXUuDnEfDPRusDDkLNiOYVLK2TNQMlSiyFnxXJKsufwVbLUwOM4PwHkrFzOxJtDd13Xbf3hRQkJAeSsXE4XPJGCIqbEuIhjkRM5X8LluEHhw7mXafV9/7Db7e4jYouiQgLIiZyvQmj0Mi33xevvGh/lEcZplYcjJ3JWGfhr6DRyIuca4rTKNiInclYZ+GvoNHIi5xritMo2IidyVhn4a+g0ciLnGuK0yjYiJ3JWGfhr6DRyKsjpvqa8hsGmjesi0Pf9Z0mLrW8cmeXVmBKAHAuBXASQMxdZ6oWAkAByCgFyOARyEUDOXGSpFwJCAsgpBMjhEMhFADlzkaVeCAgJIKcQIIdDIBcB5MxFlnohICSAnEKAHA6BXASQMxdZ6oWAnIDp15d6dwgdX8nxVc6BGiBgjoDpl7F55XQ4c3xU1tww0aCqCKzhI1NBcgrffF7VoNPZ1RAwnTUdxSA5XUEEXU3Q0VA/AdNzzaH5wXIiqH/EKbEKAqsQMypzDtiPN4j+ONyGvm7b9noVw0Ejqyfglk3atv2yps9kRGXO0xEeXq6MpNXHvlkA7sbPmoQcgxTJaXZEaBgECiCAnAUMIl0okwByljmu9KoAAshZwCDShTIJIGeZ40qvCiCAnAUMIl0okwByljmu9KoAAsXI6b46XcB4FNOFx8fHh2I6s1BHipFT+mr+hfgXe9qu64qJraUGqRiAyLlUCJ0/L3LKxwM55Qyp4QwB5JSHBXLKGVIDcmaJAeTMgpVKyZzyGEBOOUNqIHNmiQHkzIKVSsmc8hhATjlDaiBzZokB5MyClUrJnPIYQE45Q2ogc2aJAeTMgpVKyZzyGEBOOUNqIHNmiQHkzIKVSsmc8hhATjlDaiBzZokB5MyClUrJnPIYQE45Q2ogc2aJgWLk5GHrLPGRXCkPWyejezmwGDnlKKgBArYIIKet8aA1ECBzEgMQsE6AzGl9hGhftQSQs9qhp+PWCSCn9RGifdUSQM5qh56OWyeAnNZHiPZVSwA5qx16Om6dAHJaHyHaVy0B5Kx26Om4dQLIaX2EaF+1BJCz2qGn49YJIKf1EaJ91RJAzmqHno5bJ4Cc1keI9lVL4F+0MwhfD01ChAAAAABJRU5ErkJggg==;movable=1;resizable=1;rotatable=1;deletable=1;editable=1;locked=0;connectable=1;fontFamily=Times New Roman;" vertex="1" parent="1">
          <mxGeometry x="181" y="468.85" width="50" height="43.3" as="geometry" />
        </mxCell>
        <mxCell id="0HscJDK9ijoEULKKqR28-39" value="" style="shape=image;verticalLabelPosition=bottom;labelBackgroundColor=default;verticalAlign=top;aspect=fixed;imageAspect=0;image=data:image/png,iVBORw0KGgoAAAANSUhEUgAAAMgAAADICAYAAACtWK6eAAAAAXNSR0IArs4c6QAABfZJREFUeF7t3NGJHVcUBdFWJg5lHIlxJMaRGEcih+JQzAQgcblqcKG9BvTXPexT9Qp9zfvy+EEAgW8S+IINAgh8m4BAfDoQ+A4Bgfh4ICAQnwEE7gj4H+SOm7dGCAhkRLQz7wgI5I6bt0YICGREtDPvCAjkjpu3RggIZES0M+8ICOSOm7dGCAhkRLQz7wgI5I6bt0YICGREtDPvCAjkjpu3RggIZES0M+8ICOSOm7dGCAhkRLQz7wgI5I6bt0YICGREtDPvCAjkjpu3RggIZES0M+8ICOSOm7dGCAhkRLQz7wi8GcjH8zxf72Z4C4FXCfz6PM8/b/xGgbxB0e+oERBIzYg9KQICSekwpkZAIDUj9qQICCSlw5gaAYHUjNiTIiCQlA5jagQEUjNiT4qAQFI6jKkREEjNiD0pAgJJ6TCmRkAgNSP2pAgIJKXDmBoBgdSM2JMiIJCUDmNqBARSM2JPioBAUjqMqRHIBvJHjZQ9kwR+f57n3zcuf/MvCt/Y43cgkCIgkJQOY2oEBFIzYk+KgEBSOoypERBIzYg9KQICSekwpkZAIDUj9qQICCSlw5gaAYHUjNiTIiCQlA5jagQEUjNiT4qAQFI6jKkREEjNiD0pAgJJ6TCmRkAgNSP2pAgIJKXDmBoBgdSM2JMiIJCUDmNqBARSM2JPioBAUjqMqREQSM2IPSkCAknpMKZGQCA1I/akCAgkpcOYGoG3A/moHWjPJIHPL43LfXHcZxxfJ3U4ukYg+9WjAql9VDb3CGTTu6sPCQjkEJTHNgkIZNO7qw8JCOQQlMc2CQhk07urDwkI5BCUxzYJCGTTu6sPCQjkEJTHNgkIZNO7qw8JCOQQlMc2CQhk07urDwkI5BCUxzYJCGTTu6sPCQjkEJTHNgkIZNO7qw8JCOQQlMc2CSQD+eV5nt82fbg6RuDv4p/cxhiZg8CPE3j7Sxt+fJHfgECIgEBCMkzpERBIz4lFIQICCckwpUdAID0nFoUICCQkw5QeAYH0nFgUIiCQkAxTegQE0nNiUYiAQEIyTOkREEjPiUUhAgIJyTClR0AgPScWhQgIJCTDlB4BgfScWBQiIJCQDFN6BATSc2JRiIBAQjJM6REQSM+JRSECAgnJMKVHQCA9JxaFCAgkJMOUHgGB9JxYFCLwZiC+OC4kdnxK8ovjPp7n+TouxvkNAsmvHhVI48NhxfMIxKcAge8QEIiPBwIC8RlA4I6A/0HuuHlrhIBARkQ7846AQO64eWuEgEBGRDvzjoBA7rh5a4SAQEZEO/OOgEDuuHlrhIBARkQ7846AQO64eWuEgEBGRDvzjoBA7rh5a4SAQEZEO/OOgEDuuHlrhEAykM8/uf385weB/5vAP28NePNv0t/a5PcgkCEgkIwKQ4oEBFK0YlOGgEAyKgwpEhBI0YpNGQICyagwpEhAIEUrNmUICCSjwpAiAYEUrdiUISCQjApDigQEUrRiU4aAQDIqDCkSEEjRik0ZAgLJqDCkSEAgRSs2ZQgIJKPCkCIBgRSt2JQhIJCMCkOKBARStGJThoBAMioMKRIQSNGKTRkCAsmoMKRIQCBFKzZlCAgko8KQIoE3A/n80ri/ikfaNEfgz+d5XvnyuDcD+Xie5+ucCgcXCSS/elQgxY/K5iaBbHp39SEBgRyC8tgmAYFsenf1IQGBHILy2CYBgWx6d/UhAYEcgvLYJgGBbHp39SEBgRyC8tgmAYFsenf1IQGBHILy2CYBgWx6d/UhAYEcgvLYJgGBbHp39SEBgRyC8tgmAYFsenf1IQGBHILy2CaBZCCbKlz9UxN4809uf2pQjtskIJBN764+JCCQQ1Ae2yQgkE3vrj4kIJBDUB7bJCCQTe+uPiQgkENQHtskIJBN764+JCCQQ1Ae2yQgkE3vrj4kIJBDUB7bJCCQTe+uPiQgkENQHtskIJBN764+JCCQQ1Ae2yQgkE3vrj4kIJBDUB7bJCCQTe+uPiQgkENQHtskIJBN764+JCCQQ1Ae2yQgkE3vrj4kIJBDUB7bJCCQTe+uPiTwHxV+m8lYNDPKAAAAAElFTkSuQmCC;movable=1;resizable=1;rotatable=1;deletable=1;editable=1;locked=0;connectable=1;fontFamily=Times New Roman;" vertex="1" parent="1">
          <mxGeometry x="537" y="453.5" width="23" height="23" as="geometry" />
        </mxCell>
        <mxCell id="0HscJDK9ijoEULKKqR28-40" value="" style="shape=image;verticalLabelPosition=bottom;labelBackgroundColor=default;verticalAlign=top;aspect=fixed;imageAspect=0;image=data:image/png,iVBORw0KGgoAAAANSUhEUgAAAMgAAADICAYAAACtWK6eAAAAAXNSR0IArs4c6QAADvtJREFUeF7tnQ2SHDUMhZuTACcJnCRwEuAkkJNAThI4CaySNendnZmWniVLtl9XpUIR/8hP+mzZ3dP9zcGLClCBuwp8Q22oABW4rwABYXRQgQcKEBCGBxUgIIwBKoApwBUE0421NlGAgGziaA4TU4CAYLqx1iYKEJBNHM1hYgoQEEw31tpEAQKyiaM5TEwBAoLpxlqbKEBANnE0h4kpQEAw3VhrEwUIyCaO5jAxBQgIphtrbaIAAdnE0RwmpgABwXRjrU0UGAXId8dxyJ/drr+P45A/vCZVIAqQn47jePcUHPI3r+P46/jy5wOBmSscvAERIH7ZdLXQel5A+ZmgaOXKLecFiKRPvz/Nkj/kDmeq3gWSP6ayeENjPQAROP7kqgFFz6/HcfwG1WSlIQr0AiJwfBpi6bqdEJLCvu0FRFYOplX9Dv7xeRPf3xJbcFWgBxDZjMvsx6tfATkKFkh4JNyvpWsLKCBMrVzd8Lkxplr+mna3iALC1aNb+psNfM9VJEZYtFUUEO49UMUf1+NeJEZXuFUEEKZXsNyXFeW+iNwf4VVEAQQQObWSFYSXvwJyl11WEV5FFEAAkcdJ5K655RLH73ZDTFZa62M3cool+xBeRRRAAEE26Eg/RSTqMkMmEusDm7tq1SV0VGXEGQRE7w1qpdeqZEkCEusWAhKrb3jrBCRWYgISq2946wQkVmICEqtveOsEJFZiAhKrb3jrBCRWYgISq2946wQkVmICEqtveOsEJFZiAhKrb3jrBCRWYgISq2946wQkVmICEqtveOsEJFZiBJAVH1Zsv5Sc7heTBKQeILEW5bfe3jYpD6+Wf/MkAYkNGGQFibWoXuvtSW/5u9xFQGJdQkD0+rZXs8rfZVIxAqJ3IFKSgNhVK/VqVgJid6ClBgGxqPW1rKwg8tPj9LSLgGAO1NYiIFqlbpdLfxUSAelz4FVtAnKl0PW/p0JCQK4d1FOCgPSo97Vu2pvwCYiPA++1QkD89E15qR4B8XPgrZYIiJ++Ke8vJiB+DiQgsVpK68P3IwQk1qlcQfz1HZpqERB/B55b3PXrvq9VFR2+ff6WTK8mQ1cRAhILCFt/q4C8uvY98EK91tLQvQgBYQhnKSDpp7x1UlYU6zXs2JeAWF3D8p4KoJAMews+AfF0N9tCFEAPMpDYNduHdIIMCOnHPBhWmFYB+VKyNdUacpqFBG4GILKxawLKaQivtRRA9iKSZr3+3cjHZ1ncfqlYGRAR7V3HacdaIcTRWBVw+aViRUAEDOuHZ6zisfw+CnT9AKsSIJJCyQdnJJ3iRQW8FYCOhqsAwu8eeocD27ulgPkufAVACAeDeaQCptOvbED4SemRocG+RAHToyrZgMjnpLnnYOCOVkCdamUCgtxPGS0k+1tTAfXntjMB+XdN7TmqSRSQdyBfvlYoCxCuHpNE0cJmqtKsLEC491g48iYZmuqJ4AxAeHI1SQQtbqakV5efmsgABL3vIcS3V+Yv7jsOD1DAmpWUBQTZf6iWQ0BUVllHAeuhT1lA5HkreSDRciErnaV9lp1bASRtV026SOAhK8C5H+tSqD6zntvHtL5DAQSQsqdYIUthh7isOr8CyKRd8j5IGOnz+5gj6FAAAUSVPakKvTK8xxjZe8gexHJBz/FbOmDZ6RUIS9tHA4LApVoKp3cxB9CjgDVtV+9rRwNiJV1EQ2zsEZt151IgNG1Hgg9ZBVo/YaTP5dM31rb31bZ32LYC/5ze3HH5YN3kGqDmIzeeVSdY6OyMAoKQrjqrRpVNrieOlbe2iLM0V3uVzYenVyCJLry+KIDEozptH7mChJI+SbTIJCEvbtZCcW9YhOWrMqE3nkcCEkp6cUC8wLg1TNNPSIvrhJhn3deqN+ijUywEEARgROTIOsjRttUecXp7mNNad/by1n2t6hmsJgoSgGigh5Je1MuIVj1D2W01Qfa16g366BUklPSeqAqom/kSvJ0gQVZn043nUSuIvItI3uBtuUykWxoeUNa6WnqbJJBIIKx+NIys0OoTrJEriBglQWO5ZgUkG46m8Q4rCaK1aVEwFX5WHqFWgt16tGki3UJeYFlEm0BzPm/cZSVZ9bKm7aYTrJEriDhq9R9JIfd5RgSu6VWbIwxy6gPZoJsnjFEriOTCljcomkl3Er2nGeQrST39aevOuBJrxoYAYk7bRwGiGfC5jOms2tp4QPlqqdV5iKZTmwBtoppENDdPFlUBMZMe5QVlu9Zc+HWz7Uaf/H/5jJhMEDJDtue12n8rzXlRbNUUCwHEHO/mCuDDYVbHzjTrIc8CnfXQTgYCiZzaWD92ifjY6q+M8tYTLChtR8RDyLUKaF4KrR04lkf3Hsi9CuszXVr4HOUY1pR11V4KEATcYZ45dYSeXEHOOvWrmaRm28dZ/Ddkgy4GIYGocY5lsLfyccmbZ7hQLTxWyHsp1w4PLiITE7SaVgTEfFadSBKSXkGOejDGtoGX78e3DX6iJEO6RiYmaFKqCIh3AEV6zJoHo6t25BhmbBs5GEFivWSKBZGe5GUrIDOtjkmSqrodcoKFzmbI8qYa9XMhiHRLB05lh+XBTvau1Ix1YoIPLJBgjASk93RnZBCE/xZh5GAm6mvYCVbFFQQmPcHBCCCr3tUeKT+iO3zjudoKMtMGHXEUAelHCclg4H0tAcEdRkBw7XpqWjfoaKb02cZqgMCk9ygO1iUgoHCd1awb9K59bTVAEHs69YarExBYOrgiskHvOlpHAhLJATWKdJGu6cC5DAKIOEvGmXW1d/3O+jIHBJCufW0lQGY4wWpP0woc1sfOs6C41W97daloLl8OnuVCJueutL0SIF2kB3tYYBDnWH9XH2yWS/MzPdyIAILE+P/CIpURIzWehM+qNY13lEHumHd0l1a18gTVRLGeYHWn7ZUA6VoKg8JqFziafN0BFeSH1uzQEyzptBIgiC2R/kA24ZH2jGq769Qn0MjhG/RKgFScuayzVWBsDG+6YrqFrObd40Bm7Yg9SLVZC/m9wfAoDuwQ+b18oDmfm0birjttrwJIN+mO3kFmKsfuyzRVbdJCAEHi+4UDkAYQQ6+83k36VQeGf7eelBianq4oEh9Rg7T6xSVtRwSIAASxI8oRO+89Xmta6ejd6heXG89IYHoD4kK6Ey1Mr14K6RJkDr5JOcGqcopVxQmix65Hu/diuMrkhfjFZV9bYQVxGYjDLCVNIKdXldKQRzIgn4WrAgiStbjsawnIy5CyAlIlgLTzAxJoSIxo7dGWs27Q0ezojT3I4BGRHwnhQrpW6YtyVkdUSg81EiC+Q2JEY4uljHWD7jZxIYNHRH4kBmKDRVxLWQLyVq1s/yAbdLd7OMjgPQFxI91CwYOyBGQNQNz2tdmAVEtRCEg9QJAJ2S1tzwbEjXSuICoFkGBDYkRljLJQqs3I4BGD72lR7YiUK0i9FcTqE9e0PRsQt6VQORtdFbM6o1qKeDU+ZHJDYuTKDsu/p51goWfFiMj3BMkW/7VdBKTWCoKcYLmm7UiAegHiuhRapiSeYpnUQmLE1MGDwsizccsA4nZW7eWN56/IilO0F1MsrVJYOWQydk3bkdkBMfqWPK6kY/q/qcUUq1aKhcQaEtN3wwdpDDH6lgGupBMQlQKI75AYURmjKGSdsNzTdmTwiMi3tED6VmjaVcTqEKZYXXJfVraeYLn7AwlSD0DcSb+UWleAgNRJsdJPsESKLEDcSdfF/2UpAlIHkLQfSZ0lyAKk4gZddCEgdQBBMhX3fS0BeRkQBKQOIFZfoBnRw7QiCxB30i+TJ10Bq1Oqpor3RovMykiM6NR+XMq6QQ/Z1yKDR0R+LQXSr4foV21YAQlxypWRHf9u/UlxyKyssB/ZoIfceEYCtReQykGFBJDspz4mfzlKEXPH+6dCYqv1QmLE2sfr8gggIftaZPC9gFROS3rH1hsY1epn+QrxQ0jangFICOlOkYU8HOfUdclmQtIWxUgRQJBYvjQFaRQx/mxItR9JnW1DlvZLkScukOWrMnvBDEBClkLHILQ6x7Hrck0h8eExiBInWOgJRe8KkiW61nFcRb4olZUKI/qH2YoEaw8glU+wzgAhp1laAGcph8SGx9iQfeAygGRt+qyOk1lMUq2Zv4VuHfO5fGYajEzAYfYiswQygCZ+GOk90XCnLrLUB5gxvMlsHyHxhcSxSlikYWQAzZgw0lWjtRfaDZJsOMRD1kOS0LR9NCBIf/aw9q2xS7pVZfKynmCF3sxEAhZdQUJJ92XiTWsCCfqoRrBp3c1XWDXaIJAVO9T+kYCEkt4dJroGxIFyyvLu+WtUulr1SslkJQcmH4o9Q1biR1Jnd40EJJT0pBgUYGY66RIw5E/VC8lOQlNDBBCEcnHIioBUDbRZ7bJu0GWcSAyr9UEaR27kiEGhpKtHzIKVFbBu0MP3tQggyEYqnPTKXqdtKgWQuAq/8YwAIqO1ki51vi+e/6q8yEJhCiCAhKftIwEJH0yY69jwCAXKbdDRtAchvQmc9fuCEQ5mH30KIICgE7zaUqQDdJPejOJKonbPVgU/GY/Mwzfo6AqCHvOevS03DWU1qXwmv1V0Jg8WiamygCBL4T39BRT58w9hSQ7RnO7bIzyWb7IMzUSQFAuhPUd+9rqyAkPuqyGA9O5BVnYaxzZOASR2zdYhnfScYpkNZAUqcEOBYQc9CCBir/XEgV6mAp4KDLvpjALiuVH3FI5tra9A+OMlZwlRQHb5ld364TbXCIcc7XoAIm1wFZkruFawdsjJlRcg3IusEHLzjGE4HCINmmKdZeWGfZ4gm9FSSavkqQu5oTz88gBEjOabCIe7bosO099j4AWIeEtuIAooM/1Ge4som3CQAsZvWauG5x7klvYCirwiR/4mLBNGZ6LJ7U0rKenUrXF7riD3dJ3tzR+J8bFd1+1p7rJPdY8AZDuvc8DrKEBA1vElRxKgAAEJEJVNrqMAAVnHlxxJgAIEJEBUNrmOAgRkHV9yJAEKEJAAUdnkOgoQkHV8yZEEKEBAAkRlk+soQEDW8SVHEqAAAQkQlU2uowABWceXHEmAAgQkQFQ2uY4CBGQdX3IkAQoQkABR2eQ6ChCQdXzJkQQoQEACRGWT6yhAQNbxJUcSoMB/EyIE9h7aORwAAAAASUVORK5CYII=;movable=1;resizable=1;rotatable=1;deletable=1;editable=1;locked=0;connectable=1;fontFamily=Times New Roman;" vertex="1" parent="1">
          <mxGeometry x="181" y="517.75" width="45.5" height="45.5" as="geometry" />
        </mxCell>
        <mxCell id="0HscJDK9ijoEULKKqR28-41" value="" style="shape=image;verticalLabelPosition=bottom;labelBackgroundColor=default;verticalAlign=top;aspect=fixed;imageAspect=0;image=data:image/png,iVBORw0KGgoAAAANSUhEUgAAAMgAAADICAYAAACtWK6eAAAAAXNSR0IArs4c6QAACRRJREFUeF7tneGR00gXRZtIFiJhiWQhEiASIBIgEiASdp7LqvLOMoOs8zRct46qqG9/6Pa4z/X5JNlS+9lwk4AEHiTwTDYSkMDDBBTEd4cEHiGgIL49JKAgvgcksI2AR5Bt3EwdhICC7FP06zHGX/sM/eCoX8cY38//nvhPz/vnFKSv2+d3UnwYY/zdN+Smkd6NMT4pyiZ2/wspSA/HOmKUHClbHUleKQmvQ0E4wzpyfOPDtI/wZYzxRkkYVwVh/CpdR446giRuJcjHxBd2K69JQXhTP/kQu41QcpQkbhsJKMhGcOdY6unVMqu6FnnBpnjstIKw/usTq89siN3TdgwQCw/AO3+kqyCMYXRaQVg9HkEYv/i0grCKFITxi08rCKtIQRi/+LSCsIoUhPGLTysIq0hBGL/4tIKwihSE8YtPKwirSEEYv/i0grCKFITxi08rCKtIQRi/+LSCsIoUhPGLTysIq0hBGL/4tIKwihSE8YtPKwirKF0Qb3dn/Q4FgQDHGMkPTNVjt/VsuttGAgqyEdxFrJ5HrwenErda4eR94gu7ldekILypt3dD1BsxbfP0qqERBWmAeHealShJnVrVKZYbIKAgAN69aElSq5v86dOtOnLUQg3K0dCtgjRAvBiiPtV6+YdWVywxavlRl/lp7FRBGmE61HwEFGS+Tp1RIwEFaYTpUPMRUJD5OnVGjQQUpBGmQ81HQEHm69QZNRJQkEaYDjUfAQWZr1Nn1EhAQRphOtR8BBRkvk6dUSMBBWmE6VDzEVCQ+Tp1Ro0EFKQR5sVQ/k76PlyffFQF6UPu76T3sYwZSUF6qvB30ns4xo2iILyS1B/y9HfSebeuatLA0N9Jb4CYOoRHEN5M8rI//k467FdBGMDU06tlVq5swvr1FAvyS19Zsabn/wmCkoUH4Pk76QzeLaQVhLXkEYTxi08rCKtIQRi/+LSCsIoUhPGLTysIq0hBGL/4tIKwihSE8YtPKwirSEEYv/i0grCKFITxi08rCKtIQRi/+LSCsIoUhPGLTysIq0hBGL/4tIKwihSE8YtPKwirSEEYv/i0grCKFITxi08rCKtIQRi/+LSCsIoUhPGLTysIq0hBGL/4tIKwihSE8YtPKwirSEEYv/i0grCKFITxi08rCKtIQRi/+LSCsIoUhPGLTysIq0hBGL/4tIKwihSE8YtPKwirSEEYv/i0grCKFITxi08rCKtIQRi/+LSCsIoUhPGLTysIq0hBGL/4tIKwihSE8YtPKwirSEEYv/i0grCKFITxi08rCKtIQRi/+LSCsIoUhPGLTysIq0hBGL/4tIKwihSE8YtPKwirSEEYv/i0grCKFITxi08rCKtIQRi/+LSCsIoUhPGLTysIq0hBGL/4tIKwihSE8YtPKwirSEEYv/i0grCKFITxi08rCKtIQRi/+LSCsIoUhPGLTysIq0hBGL/4tIKwihSE8YtPKwirSEEYv/i0grCKFITxi08rCKtIQRi/+LSCsIoUhPGLTysIq0hBGL/4tIKwihSE8YtPKwirSEEYv/i0grCKFITxi08rCKtIQRi/+LSCsIoUhPGLTysIq0hBGL/4tIKwihSE8YtPKwirSEEYv/i0grCKFITxi08rCKtIQRi/+LSCsIoUhPGLTysIq0hBGL/4tIKwihSE8YtPKwirKF2Q72OMF2yKx04rCO//2xjjOR9mlxG+jDFe7TLyQQZVEF50siDvxhjv+RSPO4KC8O7r6PE58Cji6RXvdihIA8QxxtsxxuswSerUqk6x3AABBQHw7kXrgv1DgCRed/R16hGkkeUyVIlSp11/7TD2Y0P+OB8x6tTKrYmAR5AmkA4zJwEFmbNXZ9VEQEGaQDrMnAQUZM5enVUTAQVpAukwcxJQkDl7dVZNBBSkCaTDzElAQebs1Vk1EVCQJpAOMycBBZmzV2fVREBBmkA6zJwEFGTOXp1VEwEFaQLpMHMSUJDeXutO3n/u7qpd7ujtHf3x0eo29/r36e7ZFO/obSKvIE0gz08VlhgJWz1qqygNTShIA8QwOZYZ+Tx6Q7cKwiHWo7b1JGHiVkv+eLoFmlEQAO8crQUbUk6t7s/m4xjjDZ/icUdQENZ9PVpby/6kbj6fDptREAYwXZCanR2DjoUH4J2jP/kQu43g2lgQrYJAgOdTrNSlR70Ggf0qCAR4XjSuPlJN3Fw8DraiIBDgOZ64Pq/fgzR0qyANEM8LxdV3ISkf93pq1dOrn3A0cVyGqS8N616suib5E9clJUbdYuKavE3FegRpAvmLYRZJXu60sPVyY2L96fpvvzHfoUsF2QHqA0N2rgBf347X0cJtZwIKsjPge8OXJPQTLz+ZesLOFOQJYZ//VF3M17XKls2L7y3UQEZBALyNUfLDn/a1EfrWmMC3kmO5Ld+beNsIY74prSCbsOHQFkG8Mxdjv34ABbmeWUdiy3WI1x8d5K8cQ0GuBNa0+xZBvHWkCf41wyjINbT69t3ymK6Pz/bxXz2SgqxG1b7jNdchXn+04183oIKs47THXnUrSj3P/rt7tvz0ag/6K8dUkJWgdtqt5HjsLmCPHDuBXzusgqwlte9+9eVh3dRY/1tHjPr31bty94W+ZnQFWUPJfQ5LQEEOW70TX0NAQdZQcp/DElCQw1bvxNcQUJA1lNznsAQU5LDVO/E1BBRkDSX3OSwBBTls9U58DQEFWUPJfQ5LQEEOW70TX0NAQdZQcp/DElCQw1bvxNcQUJA1lNznsAR+JciyZlPdXeomgaMQWO6gXu6mPs37UpDfPZtwFFDO89gE6hmcWtr1tNbxIghZzOzYOJ39rAROawAsglzzfPSsQJyXBC4J1BHkVQnSsaCyaCUwI4F3JUgtHJDyy0gzQnZOt0vgSwmS/DPGt4vWVz4FgRLE648pqnQSOxA4XaRvWQZzh9fikBKII3A6xdqyDGbcTHxBEtiBwOkivTZPs3ag65A3TeC0aN8iyNplMG96xr54CawkcPoO5PKLwiXn9chKgu42LYH//A7LQ3fzLkthTkvBiUnggsCPh35r3tvdfZ9I4BECCuLbQwIK4ntAAtsIeATZxs3UQQgoyEGKdprbCCjINm6mDkLgX6Dr70My9SaQAAAAAElFTkSuQmCC;movable=1;resizable=1;rotatable=1;deletable=1;editable=1;locked=0;connectable=1;fontFamily=Times New Roman;" vertex="1" parent="1">
          <mxGeometry x="183" y="420.5" width="40" height="40" as="geometry" />
        </mxCell>
        <mxCell id="0HscJDK9ijoEULKKqR28-42" value="&lt;b&gt;固件预处理部分&lt;/b&gt;" style="text;html=1;align=center;verticalAlign=middle;whiteSpace=wrap;rounded=0;movable=1;resizable=1;rotatable=1;deletable=1;editable=1;locked=0;connectable=1;fontFamily=Times New Roman;" vertex="1" parent="1">
          <mxGeometry x="99.5" y="664.5" width="110" height="30" as="geometry" />
        </mxCell>
        <mxCell id="0HscJDK9ijoEULKKqR28-43" value="" style="shape=image;verticalLabelPosition=bottom;labelBackgroundColor=default;verticalAlign=top;aspect=fixed;imageAspect=0;image=data:image/png,iVBORw0KGgoAAAANSUhEUgAAAMgAAADICAYAAACtWK6eAAAAAXNSR0IArs4c6QAAFiJJREFUeF7tXT3LdUcVnYBCBIsIgghCFCy0MumVaGVrYaFVFP+AnXaaTitNH9BgYRPQf6BBe1NY2GnAQsHCIoWFoO96c3cyOTl31p6Zvefjnn3g4XmTZz7X3mt/zdxzn0nxBAKBwF0EnglsAoFA4D4CQZDQjkCggEAQJNQjEAiChA4EAm0IhAdpwy16XQSBIMhFBB3bbEMgCNKGW/S6CAJBkIsIOrbZhkAQpA236HURBIIgFxF0bLMNgSBIG27R6yIIBEEuIujYZhsCQZA23Hp6fTalhB888vtL2b+fSyl95vb3d26/30op/TOl9K/bz9+yBfy+ZzHRt4xAEMRPQ4QIL92m+GpKCT/Wj5BFiPJmSgn/L4hjgHQQxADEm/UHIUAGLyK0rFSIEqRpQS+lFARpAy73DisRgu0mCMMQOvw9CKIHDKR4eTEPoV/9eUshzOsRkp0DFAThKgZi/OhJXP8d3nTrFiDLL1NKIEteBNh6U72LD4KcIyje4se9AG/aHwk+iALCXPoJgnxQ/OIppPw6Szn+k1LCz7O3n1nruLxXCYK8q3qziQFL/UohtAFhUQxADvT57JxkFHEkVymtcdRahs5zdYLMJAYjRUkRkA9h7aM93eWIclWCQLms8gtJaLXKivgeltjiIO8XN8+infsvKaUvGJlgSegt9mG0JPthrkYQhClQKq1C3UNcYnMo+u8qTsi/ZkSMfF21e/pKSukjt0PNXiOR42CvnQuMeBWCgBBibVthP1MGrSdC3+86kCPfC/anKUVjLSAqfktugxsAmr4ag9GK75L9rkAQrRKfCahUxYFCQSnZgxAECjni0e41J4msKy8EtN4ZOxt3xL7d5nhkgtSGHjnILHTA2Ait2DOSHLIWLUkQXiFEPHt6DkcZdgyzpf7+qATRKslRGBrhQnn+qpDiDHJYkgRj9RyYPoQ3eTSCtOYaGmKI8mmS8pnkqCXJ5xRXS1qJUoOrwuaMb/JIBNHmBMdQCmGG9kqFZg4oBZRuhUfjSUFmFBA0969aiVIzxwq4vbeGRyGItoKTg1+Kwe/F5ZrQSmORRyoB1szK2i1YwJOycY/GyLuSZ47r7gRpCalarZkmtPI45+gVOjDSKHMtsVu8yXYh184E0VaSRMEgnJpwKldMzVy1VrhX8Wv6a0OtlnJ0C1EQ0sKbLP/sShCNwubg9wqEhSkr5R33lE5DEiitNh87zlNbVt8Bsy0/cqtJlHPh9Qgd42gUa8XQ6owoGqLLKXuLda8NeZcvBe/mQWqScYvrHZozj5VDq6OSa8jeu5/akGtpkuxEEE2SLArRG1LJOEyhtggTDizR4FibsJ95m5qQa1mS7EIQjVBFSL0hlYzzaN4j3xeravV6kXwu7SVRC4/fEhYW++xAEC05rAF+RO+h9YxoZ+FFME5NyGUtw27CrE6QWeTQeA8rT9UtxMYBWMJu5UVaSNJTKGiE47zbygRhFlx25JEHsLk95jQVrGIwtkdLL1LjudB2mZxkVYJoS7lelwL/RxRsl7Iu48lIL9JCkul32lYkiPYQ0IsczLI+gvfQKquXJdcawOlYr0aQ2eSA4jCrunvucfQqs/arJckfU0r4HP2UZyWCaBJjgOTlOSSZLN3YnW7RHLSEeUxPvLUkwfejvOiwdzrkSgT5U0rpBbJibwVlymJZ2aHCGdRAY5isSr5nW2KYS5+fPnnb5A8HYfLeNKsQRAvS35+8VfC1wmepe/DTKMoqePXs86wvu8LjZRhq7m7hVaxfVH6wywyfFQSuzTvyTfdcXb8HHiOpl5KYCbNjICYD6zCrhhj5tqzXQSGbTRCN1S5twvIDOCxZ9QwzqKAGNBixf4tXvQ41VLMJoj0pZ/oBosgr+1tehcmI6p37sP2N+DvzoK0XQGuummj2OfQ6ykyCMIFowDpr0/LdFmwtQ61W68Y7+7EwC8PXeFFrYhxD7CHXUWYRRCOMTnk/va4Aq4cvsGRehYUXs3DqxaC2P8OB3SAQUqB8W/NCh9p1on2rR6uaa5bgNaHVt1NKX+98Z6yAIWQ5+3qxCK/eVxnmSe8ppXwVQ8/7fXNZ4TAWY7JXoDLCVpHhrPEMgmgOh/KQpuc1mJoQjCnFFcIrwYm9ASXPxaxDqGNlkq0Fa3bPDWcQhF0EvFfKsyaKAIzfpXBgBkbdlq9jAObd30gpfbNj/GPXUsleE4q7GrDRwmcHUppE0NpylWTtbqEMFc1qKI2Ht5hL+0VCTGe8LlQ+3eNIgmisQc1FQBBFvrePxaqtAsUdoFdvrpwl+q1zrNIPeOZJtse6Srngvfk0oZZbwj6SIMx195ySClEsksR7goJw5bxFUxnzUDDLMcXAPH8zNF5GRkJZ+U7Glj1ovJpLwj6KIKM2KBYQwvYUeF5xEeKANPJv/F7hkdwKWAgRxFOMWB/yg7c7XkaXr5EZWJdweBRB2OY8XOTIXOUs8RTLKWTBbyhL/t850bQKmxcURNmh/Hhy5R9hIM7WbHn9Jx+flePR1tyLjCCIxnt4rkNCid7v4dMqcG+73Pt4H7b1rjUneE8IpV0HK8n3hOmna/BUTJmQeY+axFwLZCnhg2XdhSy9+/XsLx89ODt89Zp3uBfxJoimcuW9hnvCYtcqvIT8KOOONGw5ZiwiMfUi3sq5kveoiWcR5uwS3swinOsBXWFTQ72IJ0FW9h7MCkH4CB3y6s+spHcUAaSEjd9Sxi55WVNLXbnJYbmIJ0HYCegsCwRZMIDPrnXnJVPkMFIx2tHT5Gc6pTIsiwBqrr9XcqDYfJgX8SQIu3PlOTcTRknwtfX0nChCHMw/2+NINQyWPi8x19wIYEZuFkGAL1ubiQH2UlIWwnicezBS5H8vkdcydBDvkp9P4MzieJZxzI+OezkePB7PUvLzlRoCMMyYHGcl6lg38yK1hm5omXdV16wB1sTyMM3b6O8lYzLb0DE96z449PAgjNmzQWXFg25QN1J+zVJXTdQljAVJ7j3duuZBEBYbznTLmgTdAxONIq7axjJfs94jjHHpC3q6wywPZWAHcB5z1gBfqmB1A1qzkE3aMoM3M1HXGLyuiMBaWVlS1+3yDJRqZYtosD3zIZhMuxTQYLUspO8qulgThFmb2WBCHqWkMxL0D2ssy9lmh8xYsZvRsybI6uEVszZBkHOTvnIlCyt283LWBFkdSGYNV/BwBlGH+RAlw7dC2Oxm+CwJ4sZiQ3GzNc5OOA23ajpUKYTpivENV+kSZlkShOUflnO14sruYK2wxta9efa7rGwtFWJ1N8xKglHivU+xHTyvS/hsSZAdqkM7hAqenqB17B0IwvKQplzJiiA7AAjl2MHLtSqxZz9mnVco9bqUe60IskOMGmcg7RRi1nkVgrAcs7oIY0WQHSwzE3KcgZQJVJLxKtgxT1ddxrciyA75ByNINXjtBnnLnpc0ghYEYYq3ivs1ty5bqnn7oksFjqYEuH0pxZ6mns6CILsk6Iwg1fGpk4BXHXaXCqDpOkcQxGIOC6VhRF5lnRZ79RijVIhZ5TQd+y6ts/qsy0IpdqlgsQqHBRYeirnKmKaK57gpUzlbKMUusWl8UKpPK00Vr28pxd4slK4qxlgQZIfqRlwz6ddIFqKuksOxotFwgpRKvKtUsFhsulIM3a/KPiPsQhDTA2ELDxIE8VHI1UZlocsqHgS4mZV6ewli6s6cNcK0/Oe81hWHD4I0SCUI0gDapl12IohZ4ajXg1wStE0VvHfZl5R1EORdtVnpqkSvInv1ZwSpqg55LfI2rlk43UsQVtlwxiGGDwSqEaiqWAZBqvGNDpsj8I+U0qe1e+glyE9SSj/QThbtAoEFEPhPSulj2nX0EuS1lNL3tJNFu0BgAQT+m1L6qHYdvQQJD6JFOtqtgsDQEOtbKaVfr7LzWEcgoEDgrZTSi4p2T5v0ehBW+tOuI9oFAqMQGFrFYgTB+cLx+/VGAXGcByXpe99IC6vy21kL22ReYAcM7z27yLrqzKvXgzzKVZMq0DZRaOtlMmO4y2XFKlkHQd5Voyq3a615m4wXBGkQFPMg8XmQBlAX7fIoBKl6h1evB4Esd3gnFta5y0sHFuUH/ZKalUIsM520IIjZh1OcNWOXlw44w9A8/C6fSTeNaiwIYnZzsll0uo67CFi3m/GtdsGPXaCt8nQWBNnlbSEMOAssxqvtuBkvKWcLpbikZRmnl8vMtEuIavqeNguCsOrGKh+kYeuscr3LqO24hewSSpt93BbQWhCEJUW7EGSVdY5T+bqZTBWvbuqq1qbvabMgyC6l3l2IXKUNAxvvUq00fQ2VFUF2cb+m4A1UzhWmMjtbcNwMK8RUH1yPIEj1G7UdASwJueqOjuMaVxyaed+q02nHDbIEvTrPtCIIY+4q8b1pfOoo6NWGZgTZQb5NObcVQRiAq1iYXULB1QiyiwE0jxCsCAKB7qB8u9TyVyPIDmddjMTV+UeTyylIrkSQVfIQJujqGHU1TXZazw6n6Ob5hzVB2EHcCnEqszJBkHOG7WD8Svll8+d9LEOsHfKQHUjs5AS6ht3hkNA8/7D2ICwPWSHMYiRuilO7VG+PzqufgbDIoFmulh4EomYx/gphVpR660jJjMoKFcqSTLscgTVBWAizwmGcS6xap3NbtWbWebbRc9U5a4LsEGaxaocHJlsx4rBYFhXMxovJszm86nI9BYkzQGdbHGYRo5L1QeGuXsFyC6+8CMJi1uaSm5EZZi55NoGNtmk2zMohKTN23SG9l3tkVgduD0SZ9cStXh3yzNjNTtBZeNVt7LwI4s5snXzvtopKlg5ARpBuBdQt426rkqEziZC8CMKAnX0mUvJwJsB2Cn6V7iyf9NIfzf6Z9zDxbp4bZErYHR9qULzThoE7KlE/vkz73su1sY38JeCjXgjOQmXgNOth3sNEhp4EYcnwTC/CQsCe0iCUXH6ev2lP/v9KJKhVNiEKfuf/fjv7755cr6SEM4stzMCZGV9PgkDYzIv0KGKtMh3b997dgaLDCIAEQgD892qPEEeI8uaNPIw4LEw2CWEawWLewyw38ibIyl6kpnwJZXn5JkzsaUUitOgayAOinJGG5R9mSli5cLYuM+8xKhld1YswN/3zJ1+q88IDkUGjh7m3eS6l9I1CJ2/jem/qYd5jFEE0XgTWaFTiKcCzPESjUFdtMyt/ZEbNPC8aZQWYFzF1iwqtRcgE6/gzRdto8mEEoIivDD7sZYYWqzQP+0YRZMrmDnKVPOKRcojZ5JUc5vUBZGFG1tx7jAqxMA+UE+6xlNx6uW2EUi+RL6D0VLS8BJtXjlCKxXMMLc9Czbw0nP9bKmiCsVTTPPdzb2ysG5EAEn5WIatdnyYcNvceIwkiAkTlqPRYlQ7FW2C8EY9YUvyWMwhrJanZh5BIDBIMhJSla8ZpbStkgWexyC1ZYu4Woo8KsQRolmQBzNaEfQQpxBtIaXQmCVqVNz+0BHFAIsvDy3xdFiEY0xnMZ3JqfgboaIKwwyessdYaeBMD5d5/35LSVqVcvZ94F0/CiFdBcq99NLmr62HzaIIAGE08qQm1cGCEsbysnwjRVQBaTRnYjoUzvUup8Srsw1AuiXm+wRkEwfysIgEQzz4zYu0tMA+8Aw4E7z3uQujVOMP+zGK/RbCqXco9OWt0BG1cEvMVCKIJtfKqliUxzqotzFK5xbi1GuXcnsX7cntX5AEPbvEcicKuk7SE4k3rnOVBsFgNCG+klP78pHFvNUpIgQoTcpzjw9aiCfmaBLBQJ2a0zsrwee5iQRbM8ariANfrSOBD4phJEM3ZSK/+aBNDFlpcIczqNRJCFlzq9L7M6R5aieLNJAjWwKxWC0G0pDiOffUwSxNeac80LEPio5yGevPZBMHmNVUtDVEgPJQQz0IoTf9eC6qZY9U2zFC1hjR5rmJRbRzuyVcgiDYfOVMu6xPbq3oRb+NgEX61krTLKK1CEAD4m4oSYmsYxcBiYcZQ984Wa/R3L+9xb3mYT86warYwLO/IF7UKQbCmL6eU/qBADOcWn1C0a2nCkvUpVqxlIxV9vL1HiShaozjNMK1EEAD5J6UXqb2OUqEviYVZj3ayzvbrdQbEjJHIDIeTL9YI0LLtagSB+/3VzZuwfXqRhFnU4YkiA6Lj70xJvTwmm3cJcmARqxFEgMEn/b6vELyXAJlVnRIPK/CobcL26eEttVVLL9lWYbQqQWoqWz1X5O+BdQUvwqy4h4IyXEUeHnNXEUMar0yQmSRBqIcLlaXavYd1bRJiYyfmPawTY1YhzMkx++Xm70G6OkFqTmRLN0NbdIgJdOdchFlyawvObm/n8lkqfF2dIACuliRI3ms+lFMqQzIvYm1lW4jc0od95sNqX7X37ZYix8pJ+lHoNSRBXysBayxt60eEWxTboo9mTxYvpWY5Tr4Xa+9vgdPTMXbwIPlmmXCPoPcqryYXsSKjmVALA7FTc3S1yK1q5bRMznHEbjeC1CTuaGtxJUUjbK/DNGvSsFygN/eoDal657PG50Pj7UiQWpJYhFys4uNRarYWvoboPTlATUiFvW1R5NiVIAC4ViA93kSjXCuHWprQqnX9tV5jG3LsmIOcJe+s0nTs02rtWXhi4amsvYaMx9beGupoDMdxT61E9MKmOO7OHkQ2Vlvhas1NNAk7xl4tH2HnOVhzbWgF741xaz4EtWylqsSQRyCI7K/FmtWGXZo5Wj2Uh4XU3HuqyQVajNFWIdUjVLFKiqS18mdhl/bjuhqLDKVD6VL7GW4PcmhyNG1o1UqMlcNOFeaP5EF6Qi7pq/EoWhIi1rZ6ebNKmFkjDTk0oVUPMbYMqR7dg+T70yrymfIxoiB0QbjFYvAZJNGSo5Qst34sVrDcKhG/Sg5yts8eCyjJPMKlsy+I0eQjEn+PCre05DjLOyzeQLJCaFnrbR++iqUBpJcoeeUrD5u0JBmRuNesJb9rBVLhZW89b0ZkHlcjoyXbPGIOUgJaGxoxYYlXwc1hdsaQj2Vxz+m4tpqDOknKLQzGw4VTZ0K/GkGAgUUokWMJpftkSunjjFW3v1uGIVqvganxNhistfQme+UWnjaz3EfNvEPbXpEgArA1UWoFJ59baSkFW3nC2jWj/YzCQ8s6TfpcmSA5URCHa6pSJqAfBoEllpBNcp2zeWZ/GemliCECCIK8r4rwKJKwer+dnBEN4RCeZ28/rL3X3x82+dYCFgQ5R8oyidXKYqV2lydGeBCdOopXmfk967qV9rcKUpxgGB5Er1grhWD6VZdbCilmXYmx2ofbOEGQNmhBFvzI1ybPzlm0uwAhUBDAb4s3v2jn3bZdEMRGdHkoJv+2GblvFBBBSBFeogHLIEgDaIoucolRPAs8jSdxciJgeW/ePIViqdGkhEAQZLx+SHiGmYVIX0gpfSql9Nzt/8mp/DvZZ0pQ+oXi45HDRSHG+F1cZMYgyEUEHdtsQyAI0oZb9LoIAkGQiwg6ttmGQBCkDbfodREEgiAXEXRssw2BIEgbbtHrIggEQS4i6NhmGwJBkDbcotdFEAiCXETQsc02BIIgbbhFr4sgEAS5iKBjm20IBEHacIteF0EgCHIRQcc22xD4P2q1rRQi9VZ8AAAAAElFTkSuQmCC;movable=1;resizable=1;rotatable=1;deletable=1;editable=1;locked=0;connectable=1;fontFamily=Times New Roman;" vertex="1" parent="1">
          <mxGeometry x="537" y="513.5" width="23" height="23" as="geometry" />
        </mxCell>
        <mxCell id="0HscJDK9ijoEULKKqR28-44" value="" style="shape=image;verticalLabelPosition=bottom;labelBackgroundColor=default;verticalAlign=top;aspect=fixed;imageAspect=0;image=data:image/png,iVBORw0KGgoAAAANSUhEUgAAAMgAAADICAYAAACtWK6eAAAAAXNSR0IArs4c6QAADe9JREFUeF7tXV9W27wXdIDug771HNI1fLCSwkqAlTRdCewB5xzeykJI/FmtXZzg2LrSlayRhpffn0qyPfeO544kK6uKf4sh8O3bt8uLi4sfTdNcrlary6qqrpumeVutVm/9f9Z1/bjYDfLC1YoYxEegJ0Z75Ye5q3dE2by/v/96fX19m2vPf9dFgATRxXN2tPV6fW9DjOOBeqJQUWYhVm1AgqjCeXqw9Xp9XVXVk+/lDFHOzs4eX15eNr5jsf88AiTIPEZeLbpy6qfxF14DHXU2RNntdjcsuzRR/TwWCRIIX4nPcL0Fll2uyNn3I0HssbJu6eozrC8woibtLNiG/sQVwdP9SBBFTI3PaJrmZzdlqziy3VCdotzVdf1s14Ot5hAgQeYQsvj3UD7D4tKjTdp1lc1ut3ukP3FF8KMfCeKBYQyf4Xp79CeuyB32I0EccYztMxxvsyJRXJH7248EEeK3tM8Q3u6/5vQnbsiRIJa4peYzLG/7UzP6ExlyJMgMXin7DFmoP1qz7LJHjgSZwArFZ9iH+7AliTKPHAkyglEu5dR8+P+2oD85jRQJMsDGEOP8/Py+/R7j1ja5Mmv3wG31nOYdzencyylbIrPsIkEOEPj+/fut2R5im0CltOO2+r+RLrbEKs1nuBK79G31xREkx2lb1+S37Vdy2VUUQegzbCkx3q5EohRBENTtIX7pHK53SdPCWROEPiMcSbr1k+y31WdJEPqMsMQYjp572ZUdQZB9htlIaA6NaxNw9ryseBSwu1KuRMmGIMg+47im71b0n5b6dNeOEpNGPpvPfuEJguwzpt666GViLtvqYQmCnkCmjLI5hQT5OXMouyAJguwz2gPknt/f3++kByrkqpQ+5VyMvlAEYW1eVWbv2H6/NzuOzWnwUH+I6ycQBEHehh6izEAuu9DWT5InCHg5ZeUzXGUAmSghXhyuOE71S5Yg4NvQnXyGa4DpT1yRm++XHEEyCPZiawDo/iTF0+qTIQjLhfm3mU0L4miDkn2bJAhCn2EfMNuWJIotUtPtFiVITttDdMKhPwpLVj9MFyFIBkGD+y0Oo9LtzNEt6PrJYtvqoxIEWfa791DQaVu/d918b2T8l5oWjkYQcJ8Rddp2PtX9WnDh1R6/4AShz7APRuyW3Lozj3gwgtBnzIOfQgvksivGthV1gqAD3oIO7TNcSYcct5D+RJUg9Bmu6ZlOPyr/YSxUCMJaNp0E17oTblv5i6Q3QVBVI6QsayXp0uOw7PIkyHq9fmq/kLteOpAO1y/SZzjg9KcLMlF8PaWzgoAqR1brGa4J79oP2J84vxCdCGLWNqqqMuoB8cej/HXDhOZPfD71dSLI1dXVb6A9Pc5vD920yms0tLLLkGS73X6VRkFMEKAv/UgMaTY4tAcjyk1d18+SxxQTJHVj7iOnEuDY9hABBH9iDrPbbrd3ktiJCZJqecVpW0nYw7VNeVu9S5klJkgLQBMOXueRWU45Q6ffMeWyqz3NUpTzosYJzl5x2lY/v9VGTLHsan/m+qvkVEtYgrCkUsvjYAOluFZWDEH6qJIowfLbeeCUvwEqjiBHRFnsTCrnbMqoY4ol1TG8xRJkQJTFPvDPKNdFj5KyKSdBRkLJskuU316NU/QZUw9UvIIMwSFRvHJ/sjPqN0AkyGlFoT9R4AvyiSjm8UmQiSTI5XfzFPLcaQi0cmrsIUmQmdCz7JJzI8EFYvlDdD1IEEvoSJR5oBCmbeef4rAFCSJEjLt/PwOGNG0rDDc9iBQwrp8cIpaDz+A0rysL6E9OIpDy9hDNcLPEUkCzJH+So8+ggiiQwGaInP1Jzj6DBLHJbsU2ua2f5O4zSBDF5LcdKoeyC3V7iG2MbNrRg9ig5NEGkSjo20M8wvWpKwmiiebEWCj+pORyaix8JEgkgqS+fpLT9hDNkEITpHsrX2oCEmOslMou5Glbg2N7GPrzarW6DRU3aIJUVXVjjjTd7/f3QEeb/ovlkkRBnrYd4hb65E54gpijIZGDbdgS25+A+4yDM81IkGntPDg7NQOiBP0+Hnx7yOiZZiSIgCB9U/S6ui0XN+2Jfo9adXUGeJz8upMEcSBI3wXtdymGj6rhT5AV1fb5SRAPgpiuyEni409y8hlTKUCCeBLkqOz60f7vB63SJeY4tvu7wLeHiM9OJkGUCJK7P0HeHuIzi0eCKBMkR39SSjk1lgokSCCCZORP4HYSdCFV+Y0WEiQgQXLxJzG9kO+1fMopKogcffGPLE5dAnm9QA5d3B6207bSu6KCRFCQ40sgr59IEyxSe5Vyigoij5aqggwvj75+IocySA/xtK30LqggCygIiSJN08P22j5j6m5IkIUJcmTkf7bfH1z7pU++vUP5DBLEPWeClVinbon+5GSwgvkMEgSIIOZW6U8OAhbcZ5AgYAQ5Krtg93e5wx7/I68pRW+axpS+Qf6y+KIwCDKCQUtaP1nCZ1BBBMl41DS6B5kLFur38ZYhWMRnzGFOBTmNUFIEydWfxJy2tSTqv2ac5p1GLDmC5ORPUiunxlKBBAElyBFRENdPkiunSBCpvlZVsgpy/ChA6yeLTttKU4AKAq4gw9tPef0kZZ9Bky59bXy0h1GQVImC4DNIkMIIkpA/gfAZJEihBOkfewF/AuUzSJDCCRJ5/QSyLD2VIjTpGZl0m/fA1dXV74An1T/XdX1jcx8obUgQEkQzV0kQIZrcrCgELHRzKogMYSoIFUSWMdOtqSBCNKkgQsBCN6eCyBCmglBBZBlDBdHEq6KCqMLpPxgVRIYhFYQKIssYKogmXlQQVTQVBqOCyECkglBBZBlDBdHEiwqiiqbCYFQQGYhUECqILGOoIJp4UUFU0VQYjAoiA5EKQgWRZQwVRBMvKogqmgqDUUFkIFJBqCCyjKGCaOJFBVFFU2EwKogMRCoIFUSWMVQQTbyoIKpoKgxGBZGBSAWhgsgyhgqiiRcVRBVNhcGoIDIQqSBUEFnGUEE08aKCqKKpMBgVRAYiFYQKIssYKogmXlQQVTQVBqOCyECkglBBZBlDBdHEiwqiiqbCYFQQGYhUECqILGOoIJp4UUFU0VQYjAoiA5EKQgWRZQwVRBMveAV5aA/2+vX6+vqmisqCg1FB7MHvftIu6A+koh8cV6H/hNhxOpAg8wSJ+VuP8ATp4TREOTs7e3x5ednMQ5xuCxJkOjbr9fq+bfEQK4LZEGQAGPTPi5Eg46kfo5wau3KOBIEuu0iQwzSNWU4VQ5Bh2dX+nNmmruvHWJLsex0S5APB2OVUcQQ5IspdXdfPvgkcuj8JUlXr9fq6aZqfAX+r0TqMQUusTh5/W99N4IZN02x2u91jytPCJRNkKZ8xlXZFEcQAkfq0cIkEWdpnTBGkLc9Xkve2qLEZuK0jG8kFYrVNlSilESQFn3Eq50yObLfbr5KcdCHIU1VV15KLxGzbESUZf1IKQVLyGRME2Wy32ztJProQxJDDkCTpv1T8Se4ESdFnTCTmjXRiR0yQrsxKWkVSmhbOlSAp+4wTBHH6yWxXgkCoSApEyZEgKfsMTfUwYzkRpFORqHtoNOq5JfxJTgRB8BljebJare5c9/Q5EwRQYv9g1892xdpWnwNBwHzGAUeMF5Ua8+EAzgTpBwGV22jrJ8gEQX0J9rnpoxz/xtAoXcDfMEG31aMSBPXF1+Wz2g5wbwUZEsx8T7zf7+9T2HPjQHw1UIfXRiMIX3aHmaNKEDM0siyHWI1HIQhy3LqUfgixy1udID3/kAHXJAoCQcDLqSDEUPUgU+UMumQboyddfUUpsVCnbQezkV6xsSnDgynI8OK9mrRv5ltEf+KzbSVFBcngpRXto7koBCm57EqJIMhlb0ifMaUkUQkyJMr5+bmZ7bq1kbmU2kj9SSoEAfcZQWYYbfJqEYIMFhmT+RTTBqxhG9ttK0sThD5DGtnA07zS20GX/Tl/shRB6DOkmTjeflEFGTPy7f8X7RAxHQinP/uNTRD0F46Jf4j1DNdYJ0OQIyMf9HxWV7Dm+o35k5gEoc+Yi5D835MjSP8IyNtWDFF2u92NOW0lBkHoM+SJb9sjWYKYB0AuF3o1Cbz289xdJ/vZQNuE1m6XNEFyWD/RDlgm4yXlM5JbB3ENMvLMjOszZ9ZvsfUMVxwhFOT44ZD9iWugkPsh/5QFJEHQ/QlysjvcO0w5NfZssAShP3FI1bhdoInRQwVPkBzWT+Lmbdir2W7BCXsXeqNnQ5Bh2RV4alUP/YxGkm7iRHn0rAjCsmuxtMuinMrSg0ylhJkWRt1Wv1iqyy4MN20rezyPkxWlF1qyPfJWjCVxO3Xt3HzGFMZZllhjD4y8bSUVkuTqM0iQAQIkijPdsvUZJMgIAty2Yk2U7H0GCTKBALetjINTks8gQWZeliy7PgAq0WeQIJbVBImS1ueulmEL2qyYWSwJigX6k6J9BhVEwo5B29z9CX3GfGJQQQr0J/QZ88ToW5Agllhl5E+KXM+wDPOnZiSIEDlUf8JyShjorjkJ4oAb0mn1LKccAjzoQoJ44AdQdrGc8oiv6UqCeAJouie4rf65rusbhUcrfggSRDEFOqI8LfUjQfQZisGkB9EHs1eTi4uLH+1/j3YIN31GmFiyxAqHa8xjU+kzAsaRJVZAcAeKEuK0em4PCRw7KkgEgPtLaG1boc+IGDTOYsUF22damD4jbqz6q7HEWgB3CVFIjAUCxIXCZUHvr26I8uXLl+v9fv+fmRpuf+/w8k/du1q9dcR4S+nnyNJALe5d/A+m6Deb2y8fJwAAAABJRU5ErkJggg==;movable=1;resizable=1;rotatable=1;deletable=1;editable=1;locked=0;connectable=1;fontFamily=Times New Roman;" vertex="1" parent="1">
          <mxGeometry x="537" y="573" width="23" height="23" as="geometry" />
        </mxCell>
        <mxCell id="0HscJDK9ijoEULKKqR28-46" value="" style="html=1;shadow=0;dashed=0;align=center;verticalAlign=middle;shape=mxgraph.arrows2.arrow;dy=0.56;dx=20.33;direction=south;notch=0;gradientColor=#E6E6E6;movable=1;resizable=1;rotatable=1;deletable=1;editable=1;locked=0;connectable=1;fontFamily=Times New Roman;" vertex="1" parent="1">
          <mxGeometry x="142" y="631" width="26" height="32" as="geometry" />
        </mxCell>
        <mxCell id="0HscJDK9ijoEULKKqR28-47" value="" style="html=1;shadow=0;dashed=0;align=center;verticalAlign=middle;shape=mxgraph.arrows2.arrow;dy=0.59;dx=12.23;direction=east;notch=0;gradientColor=#E6E6E6;movable=1;resizable=1;rotatable=1;deletable=1;editable=1;locked=0;connectable=1;fontFamily=Times New Roman;" vertex="1" parent="1">
          <mxGeometry x="265" y="712.75" width="25" height="15.5" as="geometry" />
        </mxCell>
        <mxCell id="0HscJDK9ijoEULKKqR28-48" value="&lt;div style=&quot;font-size: 10px;&quot;&gt;&lt;span style=&quot;color: rgb(51, 51, 51);&quot;&gt;&lt;font style=&quot;font-size: 10px;&quot;&gt;配置内&lt;/font&gt;&lt;/span&gt;&lt;span style=&quot;color: rgb(51, 51, 51); background-color: initial;&quot;&gt;存映射&lt;/span&gt;&lt;/div&gt;" style="shape=cylinder3;whiteSpace=wrap;html=1;boundedLbl=1;backgroundOutline=1;size=7.888905843098939;direction=south;gradientColor=none;fillColor=#E6E6E6;movable=1;resizable=1;rotatable=1;deletable=1;editable=1;locked=0;connectable=1;fontFamily=Times New Roman;" vertex="1" parent="1">
          <mxGeometry x="54" y="689" width="80" height="35" as="geometry" />
        </mxCell>
        <mxCell id="0HscJDK9ijoEULKKqR28-49" value="&lt;div style=&quot;&quot;&gt;&lt;span style=&quot;color: rgb(51, 51, 51);&quot;&gt;&lt;font style=&quot;font-size: 10px;&quot;&gt;外设寄&lt;/font&gt;&lt;/span&gt;&lt;/div&gt;&lt;div style=&quot;&quot;&gt;&lt;span style=&quot;color: rgb(51, 51, 51);&quot;&gt;&lt;font style=&quot;font-size: 10px;&quot;&gt;存器映射&lt;/font&gt;&lt;/span&gt;&lt;br&gt;&lt;/div&gt;" style="shape=cylinder3;whiteSpace=wrap;html=1;boundedLbl=1;backgroundOutline=1;size=7.888905843098939;direction=south;gradientColor=none;fillColor=#E6E6E6;movable=1;resizable=1;rotatable=1;deletable=1;editable=1;locked=0;connectable=1;fontFamily=Times New Roman;" vertex="1" parent="1">
          <mxGeometry x="177" y="689" width="80" height="35" as="geometry" />
        </mxCell>
        <mxCell id="0HscJDK9ijoEULKKqR28-50" value="&lt;div style=&quot;font-size: 10px;&quot;&gt;&lt;span style=&quot;color: rgb(51, 51, 51);&quot;&gt;中断控制&lt;/span&gt;&lt;div style=&quot;&quot;&gt;&lt;span style=&quot;color: rgb(51, 51, 51);&quot;&gt;和地址映射&lt;/span&gt;&lt;/div&gt;&lt;/div&gt;" style="shape=cylinder3;whiteSpace=wrap;html=1;boundedLbl=1;backgroundOutline=1;size=7.888905843098939;direction=south;gradientColor=none;fillColor=#E6E6E6;movable=1;resizable=1;rotatable=1;deletable=1;editable=1;locked=0;connectable=1;fontFamily=Times New Roman;" vertex="1" parent="1">
          <mxGeometry x="54" y="734" width="80" height="35" as="geometry" />
        </mxCell>
        <mxCell id="0HscJDK9ijoEULKKqR28-51" value="&lt;div style=&quot;font-size: 10px;&quot;&gt;&lt;span style=&quot;color: rgb(51, 51, 51);&quot;&gt;匹配内核&lt;/span&gt;&lt;div style=&quot;&quot;&gt;&lt;span style=&quot;color: rgb(51, 51, 51);&quot;&gt;启动配置&lt;/span&gt;&lt;/div&gt;&lt;/div&gt;" style="shape=cylinder3;whiteSpace=wrap;html=1;boundedLbl=1;backgroundOutline=1;size=7.888905843098939;direction=south;gradientColor=none;fillColor=#E6E6E6;movable=1;resizable=1;rotatable=1;deletable=1;editable=1;locked=0;connectable=1;fontFamily=Times New Roman;" vertex="1" parent="1">
          <mxGeometry x="177" y="734" width="80" height="35" as="geometry" />
        </mxCell>
        <mxCell id="0HscJDK9ijoEULKKqR28-52" value="" style="shape=image;verticalLabelPosition=bottom;labelBackgroundColor=default;verticalAlign=top;aspect=fixed;imageAspect=0;image=data:image/png,iVBORw0KGgoAAAANSUhEUgAAAMgAAADICAYAAACtWK6eAAAAAXNSR0IArs4c6QAAErNJREFUeF7tnWtS3DgQgMcwnGPZf6mCnCHkJAknSThJyEkgZwCq+Bf2HsPMuh1rovHYY/VDUktuqraWJB49Wv2pH2prmpX9RJPAhw8fLtfr9WXTNJe73e6f3W53CZ3Bn12nE3/35v69aZr977vdbv/72dnZL/jzZrN5e3193f99tMkstOFmofMWmzZAAI2t1+svfaM3oPQ+BGKdTTTkwAGY4HcHz/Pz82Psvmtv3wBBrrCzCqvV6tNqtbrp/0O2kuZxz+I8AjRPT0/3aXqupxcDZGYteyA669Aq3NeUliGGmvXQdMDA72ZlTkvZABmRj4OiBiDmIANIWujvN5vNT4tljqVlgPQy8SyFardpTuE5/26wGCAHEjAopnEyWP7IZpEWBMA4Pz//1mZ9vnJ23CV81sUsTdP8XGK8sihArq+vwX36pjnzpBm6PoV8t6Rs2CIAub6+/raEgDsVXM79en5+vkvVZ65+qgXEiy++5xJu7f0uAZQqAQGL0SqngZGI0JpBqQoQiDHamqcfWg/z/JIQp7sTf7ev1RrWbWmdW3+Q2p2p1OR6VQFI70790BB897tpVxMFtVFN0/wnfWLtF0GCYm632099QWTSGrApAwXzfX9//1zDwWPRgGiIM5x7ASBoyO6ATC4uLm4cNLk2jVrcrmIByRVnuIVfrVa/SjgXyF1cWTooxQGSyZ2CsvHHGnzrgYVJdlBaqttVFCAfP378CkF4iuRM6TtfiIwcLLvdDqqV4RA16k+JMi0CkFRWo8QFlNLolLC0L5Tdv7y83EqNPWY76gFJlLp93Gw2tzVkXSSUJUWtWr8Z3WqP41QDkiAQ/27vQUwjFTtLWILFVglITJeqhEWRsAKSbaQAReu5iTpA+orbB8kFrvWUV1pGc+3FBEWry6UKkFhwQF1WDSnaOQVO9e+xQNFo3dUAEiOFq3VXSqXIsfuJ4Qprg0QFINLBuDYhx1bU3O3D5rbdbuENzX2RpcCYVFj97IBcXV1B9a3kia4KwQooSFFNRHK7sq9lVkCur68hGBc5wTV3SgdP/RnKg5Q1yX2omAWQCL4r1El91qEiNgppawKb38vLy785JJsFEEnLYRmqHGoT1qdkbJkLkuSASMFhLlWYkuZ+StLlygFJUkAE4Sim2C23gmroX9LlSh2TJANECo72zb1bDW/uaVC80sYg5XKlhCQJIFKCad/i+6y9+rM0pU09XsED4SQp4OiASAjE4o3Uahy3P8G4JDokUQGRqK0yOOIqa67WJSBJUTERDRApOHLlv3MpzpL6FYQk2otXUQDpsxa/mYtth39MAZbwcYlD45gXQkQBRCBjZXCUoN1CY5SApL91RryaQhwQbsYqx2GQ0DpbMwwJSLhbMaoqRAHhxh0GB0PDKvgoF5IYCR1RQK6urn4zqzjtnKMCRedMQQISycSOGCACcYfBwdGsij7LTfJInrSLACJwGGhwVKTgElMR0CmRQ0Q2IFzarXxEQp3qbIMDiVQ8wgaE41pJmsI6VcRmxcmKSiR9WIBwCZcMpkyV6pQA94yEW/3NAqSle8dYFos7GMJb0kc5bjzXipABYd5GYnAsScMF5sr0Vsgv2JEAYR4IWhmJgMIssQnqpswJ2KmAkK7r4Zq7JSqFzfmvBJiHiKSNGQ0Ix9RZStfUnSsBTjxCCdjRgDDKSUQObrgCts+XLwFq6pfiwaAAoQ4MlqS9XR3VV/nLaDOIJQGOq4U9e0MpLTWtSzFtsYRr7dYhAaqrj7UiwYAwrAcpOKpjGW0WMSXAqOIIdveDAWHEHnbmEVNLFtw2NWDHWJEgQBjmjHxAs+B1t6kjJEA9Gwl1+4MAoVqP9htk/7WvVkastj2KlkBsKzILCNV6tDMN9vPQUrEPmAQ8CTB0dNb9nwWEGghZWtd0OJUEqFYk5CaUk4Awaq7MeqTSDuunk0AsK3ISEGoAZLGHaW1qCcSyInMWBP2+B/akMrUgrb96JUDZ0OcqfScBoZossx7lKqD3RTcwiZt2s+u+1rm9yum+jSnvtM+MYUUmQ4JJQCjBuVkP7Sr0d3xDGOa+bbiUtaXo7alg/RQgaPfKytl1AoKF4cQsZtOiuSXASCyNzm0UEKJ7ZTVXubVjtVoJwnA0m9DT59xiIFqRUTdrFBBKB6UIL/fiSfYfE4axcZayxpIb/BQgaPfKgnNJ1T9uKzUMY7MpZY0ZwfqRm3UECIW+UgK4uCos27oHxM1cAC3b83RrJVVHULygduZHbtYRIJTCxFJMbypF4vZDyedz+wz4fFExJnGjfxteZngECOWtwVJMb4ASZH+EkYWJOvbSvAQpN+sAECJ19s6HoGoqtR5wWHj79PR0LzjV6E0R3ayDOOQAEMrilCi46CvD6IC4qIwewz5aopdAtMYHruQQEPQ3RJUUuIWpQt6nKFY8xYhLXGeKmzV8HfcAEGz8UZpfmkKRuH1wbzPn9j/x+aICdH8OFIvsW8s9IMSdy977iKCRnHufIgxnVfJGSLyNZx+H7AGx+COGatHb1ARJyXEmMQ7Zb/w+IBZ/0PU5yie1QFJigO4WhBKH+NW9e0Cw8UfI+7xRtGZhjWqApMQAnROH+IF6Bwgl/ijZLy2NscyQFBugu3XmxCFkQEr2S0sDBMabC5IaNkJOHNIBQgnQS/ZLSwQkFyQ1bITEOKQL1MmAlO6XGiRhEqhlIyQU4XaupQMEm8Eq3i8NUw+dT1EOv6gzqWUjxMrMBeodINgMVg1+KVVhcn8Ou9DM8VazEWLDCBYgrdDtBJ2peZSPJ4aj6BP0oXwpmSxwLxtKhF9D4EZR0JyfSQ0HzLWmdaboOdzS01DOQGoJ3HIqPKbvHHDA+GpaZwogsEGABfkGLhNmwWoSHGbeOZ7NBQfMtZYA3aXI1+v1b+Qafm+wwUttgkMKLOnjOeGosZSIkoxCA4L5frek2lRZZ5nhqCpAd6qBPQuBbC24WA/Ia2WqSf1pZYqwJuJTqSlAd8IhyPXRABFXLV6DhEUc6/Bxs9ncnp+fP7Q3s3c3tGN/aowzCbLFA2KHhFhVC3+esICjcECJhAtMqZDUFKCzLAjFL3t5ebkNX3Z7MkQC0nC4PolVwFW60diEVPflOgZIiPrGfSYWHFRIavUSDJC4ehyl9dhwUCCpMUAHOWDP/DoLgs0Ntx1ZHZYQKqngwEJSY4BOAQQ+Y4AIKTu2mdRwYCCpMUAnA4KNQcyCYFE4fj4XHCGQ1OpewdyxMUhnQbCA1BrA8dU+rIXccPiQtLVJX2DD80ZetfuMBcSyWGE6LfaUFjj8CUEaGP78+vr6JjZRpQ2RACEsWpU58thrSpDz2JBM9oyFIqwB/iS9xipPhsyDPkpYGIMjSLK4hwjrYIDgRIx/mrAoBgdezEGfwK5FV81L8cuG3+MWNLoFPoRdkAkRmVslpDuUhJQBIiT8YTMGRyTBMpolAYI9fofx1XrSypD9wUcNDilJyrZDqRohXdoAtz08Pz8/yg6/jtYMDp3ryLm0Ab6oHt4qxPwYICPSMjgwKpT2WcrtPd21P5yLfdNOUXdvBof69SHd3kO6etTOQg6VweDQDQeMDputhc9A0aYDxC5uIK6xwUEUXOKPYddpeDcvChC7+ufP6mKFPqETds6RABZKihdeLXcWhOSfLaHAbWrtDI4EWi3YBTbF66rWyYAsOdVrcAhqboKmKBks916MA4SS6q363QGzHAk0N1EXlADdGYAOEEqqd4lxiFmORBot3A02/nAZLPi//z3pFqifWBiDQ1hrEzZHjT+GgKAD9aXEIQZHQm0W7ooSf/ivlfsWxOKQkcUxOIQ1NnFzlGJc/+KKPSCUOKT2E3WDI7E2R+iOsoZ+tfoeEMrBV82BOkWwI+trh4ARlB7TJDb+8AP0gxiEAkg/0Ooqew0OjArqfZYbf4wBQolDqtolDQ69Co8dGeX8Y3hx3oGLRYlDanKzDA6sCup+nuJeDd+WPQCE6mbVcF2lwaFb2bGjo7hXY0mnMUAo5yFFu1kGB1b99D9PWdOxjf4IkKW5WcSdZqghRW8Q+tUdP0IJ9+ooSHfDkKIPP630n6AIcjBKgyP9sp3skbLpTV3KfmRBoGdKB6UeGjIBMTiUwSEdR48CQnGzSjwTIW4ETiUMDp1wUI4qJu96GwWESmFpVoRyV1KvEwaHQjioenvqO28mAWHsrsWcrBMtpcGhFA7ieq5OHVNMAkLtrLRvoEJWexocSuGAYVFOzuFzp67SnQSEYa7e3t/fP5dyoQNsBOfn5w9N03TftHTix+BQDEevrzvsEOc29JOALMWK9PP80cZQEOCN/Szy/XussuV8HukJ+EM9GRKcBIRjRUr8DhGIu7bb7SfPmsAF3b/sou6cqh/WN+W985CkUgggpLRZOy3bdcPW1p5iSiCW9YBhzQLCsSIlxSLMNbKPZ5QA5bA3tAo9CBBqyncuAMooU+u6EglQM1ehFehBgCAyPWNiL+ZcpBKdWcw0GAe93c3tIYIKeggaYliRtxID9hDh2TN5JUApqu1HHBwfBwNCTfl2gU7T3D49Pd3nFaf1XpMEqBs2yCDUegQH6U6w1EGFBkQ1LaDNJa4EiGldGFSw9UADwolFLGCPqzBLap2a1qVs1MEuloQVAVfLDt2WpMryc+UE5pSrctGAwJSpwRGFYHkRW4slS4DhWpFq6UiAcAJ2c7VKVs+8Y6duzP2oSccNJECgQ+oBDTbNlndJrHctEqAmiGD8nE2ZDAjTirxZPKJF9fSPg6Nr2LTuUBpkQKAhJtV2gKhfN1WMkONacc/gWIAEvEdxUsAc06di5WwQ0SXAgSOknH1uAixAoHGu+WvbQB3czE3I/r0eCTBTuiAIUmDuS5ANiISrdXZ2dmelKPUotsRMNMAB8xABhJvVgvMRC9ol1KqONgTgIJ15jElPDBBOGUqfiivqsoc6VFHfLLguu/RhtBggEvEITM7eQtSntKlGxN1k+3Gy4w7xGMRvkFpI5tqQ3gFSLa71w5cAM2MFAxBP+IhaEM+KnLpCZ1aSBsmsiKp7QAAOsbgjqgVxkARexja50AZJdQxMTkgAjpO3I3IkKW5B3GC4wZYF7pxlLeOz3INmb5aicUd0C+I64JSi+DGJBe5lKDxmlBIbaIygfDiHaBbEdcQN2p0lsXMSjPrpflbgnKObILfOKkRK0QGBQQhCct++cH8XMjF7RqcEpOBoZyeesRqTWBJADBKdypp6VBIudz/mKBmrrID0PucXIF9gYZLsHgLjtCZ6CUh4Eanh6Ny4lCsomLWAt8Ts1D3l4hH7klxzifJ17DSSAgKDEyon6ObZFzlaXIJd9UTPC7pU3VrnuKEzOSAOkvV6zTpt99fYXrxKpPGB3QhbDeg1WcwxnGIWQDxIpGISZ03s3q1AJY71GGSpdrvdj4CvtAsdQjY4kscgQ4kIB+7mcoWqXITnpNeyd6HvX15ebiMMN7jJbBbEH6FghsNik+Cll3tQev36kanIVKoABAQSQ8j2pqIcBGMtRYg1um5SnJCHSkYNIDBgyazHMIh/f3+/K+WrqUMXL9dzMdwpby7RCg8p8lIFiAveuaXyY4KwlDBFPY4/E8PS9/GGynsJ1AHiQfKtaZqvMsv6txUHymaz+WkWJUy6kS0GDCJrpuqUFFQC4iBZr9diaeChEAAUWBhzvabVIwEY0LmKYHxKCmoBcQOWPHmfEgIcNDZN89O+u+SPhHqZR7Hgbg1KSaCoBySFNfEXbamX2Dlr0SruV8FDvqk9Sa1LNRxwEYC4QccKEMfcrzb+gaDxZ803Pnou1E3rbsJ/KX5Uu1RFA+KZ/4cEu1wnKxernJ2d/aoBFs9SXMZIgpxwY1VmqeZ2hKIsiB+XxAzgZxa5C+7bi5F/lRCz9EBcrlarT72VSGUp9htMu5kVW3FdJCC5QfFjlv73Ry0WBoC4uLiAgsF/cgAx2FyKcqfGNsaiARmAIlY+P2d2T/17n515c/9vyyb+g98lrQ1AAGNwILRZOHCX4O+SWodTlraWm2iqAMQtFJSqbLdbSE92CqTtp49noNYI3DQ/xul+H/x9Nwd/Lh4I2qa2n0ttWcCqAIFVSnS4pVJBMw+qeHeqWhdrbGKJ8/qZdTNP90uob6vOggxVxQtaoWxFhY+eR53lel0CGE5a1QPiq0VfTm+gEFkBMGqLMeZEsShAnDBS1BrNCb6kf4dataUWdS4SEB+UPlVqVmVA7JLcqFOb1aIB8QVjsYrdM7aoLBbHhclUxMcZMvmz9gLZadGZBZlRLWdZttvtJ02n1VQiHBDweXurcl6KBsi8jA6eKA0YD4giiiuRyxH9cQOEKWJXLQvWxbMy0GrSMxdX+9VXGkP/BgRzbeHjBoiAEKeaGMKzP3zyasWgvqpbiMO/29dqjdVteX9nEERcP2j6fw8gLHAcOkuzAAAAAElFTkSuQmCC;movable=1;resizable=1;rotatable=1;deletable=1;editable=1;locked=0;connectable=1;fontFamily=Times New Roman;" vertex="1" parent="1">
          <mxGeometry x="140" y="712.75" width="30" height="30" as="geometry" />
        </mxCell>
        <mxCell id="0HscJDK9ijoEULKKqR28-53" value="&lt;span style=&quot;text-align: left; color: rgb(51, 51, 51); font-size: 9.75pt;&quot;&gt;PTP4L&lt;/span&gt;&lt;div&gt;&lt;span style=&quot;text-align: left; color: rgb(51, 51, 51); font-size: 9.75pt;&quot;&gt;时间对齐&lt;/span&gt;&lt;/div&gt;" style="shape=cube;whiteSpace=wrap;html=1;boundedLbl=1;backgroundOutline=1;darkOpacity=0.05;darkOpacity2=0.1;size=10;gradientColor=#CCCC00;movable=1;resizable=1;rotatable=1;deletable=1;editable=1;locked=0;connectable=1;fontFamily=Times New Roman;" vertex="1" parent="1">
          <mxGeometry x="440.5" y="444.5" width="85" height="41" as="geometry" />
        </mxCell>
        <mxCell id="0HscJDK9ijoEULKKqR28-54" value="&lt;span style=&quot;text-align: left;&quot;&gt;HTTPD&lt;/span&gt;" style="shape=cube;whiteSpace=wrap;html=1;boundedLbl=1;backgroundOutline=1;darkOpacity=0.05;darkOpacity2=0.1;size=10;gradientColor=#CCCC00;movable=1;resizable=1;rotatable=1;deletable=1;editable=1;locked=0;connectable=1;fontFamily=Times New Roman;" vertex="1" parent="1">
          <mxGeometry x="440.5" y="504.5" width="85" height="41" as="geometry" />
        </mxCell>
        <mxCell id="0HscJDK9ijoEULKKqR28-55" value="&lt;span style=&quot;&quot;&gt;TRACE-CMD&lt;/span&gt;" style="shape=cube;whiteSpace=wrap;html=1;boundedLbl=1;backgroundOutline=1;darkOpacity=0.05;darkOpacity2=0.1;size=10;align=left;gradientColor=#CCCC00;movable=1;resizable=1;rotatable=1;deletable=1;editable=1;locked=0;connectable=1;fontFamily=Times New Roman;" vertex="1" parent="1">
          <mxGeometry x="440.5" y="567" width="85" height="41" as="geometry" />
        </mxCell>
        <mxCell id="0HscJDK9ijoEULKKqR28-57" value="&lt;b style=&quot;font-size: 18px;&quot;&gt;固件提取和预处理模块&lt;/b&gt;" style="text;html=1;align=center;verticalAlign=middle;whiteSpace=wrap;rounded=0;fontSize=18;movable=1;resizable=1;rotatable=1;deletable=1;editable=1;locked=0;connectable=1;fontFamily=Times New Roman;" vertex="1" parent="1">
          <mxGeometry x="9" y="514.75" width="26" height="145.5" as="geometry" />
        </mxCell>
        <mxCell id="0HscJDK9ijoEULKKqR28-71" value="··· ···" style="text;html=1;align=center;verticalAlign=middle;whiteSpace=wrap;rounded=0;fontSize=34;movable=1;resizable=1;rotatable=1;deletable=1;editable=1;locked=0;connectable=1;fontFamily=Times New Roman;fontStyle=1" vertex="1" parent="1">
          <mxGeometry x="704" y="707" width="86" height="30" as="geometry" />
        </mxCell>
        <mxCell id="0HscJDK9ijoEULKKqR28-6" value="" style="whiteSpace=wrap;html=1;textShadow=0;gradientColor=#A8BBA2;gradientDirection=south;rounded=1;movable=1;resizable=1;rotatable=1;deletable=1;editable=1;locked=0;connectable=1;fontFamily=Times New Roman;" vertex="1" parent="1">
          <mxGeometry x="290" y="665" width="410" height="111" as="geometry" />
        </mxCell>
        <mxCell id="0HscJDK9ijoEULKKqR28-7" value="&lt;font style=&quot;font-size: 13px;&quot;&gt;&lt;span&gt;固件模拟部分(节点1)&lt;/span&gt;&lt;/font&gt;" style="text;html=1;align=center;verticalAlign=middle;whiteSpace=wrap;rounded=0;fontSize=13;movable=1;resizable=1;rotatable=1;deletable=1;editable=1;locked=0;connectable=1;fontFamily=Times New Roman;fontStyle=1" vertex="1" parent="1">
          <mxGeometry x="389" y="665" width="211" height="30" as="geometry" />
        </mxCell>
        <mxCell id="0HscJDK9ijoEULKKqR28-72" value="" style="rounded=1;whiteSpace=wrap;html=1;fillColor=default;dashed=1;gradientColor=#84947f;gradientDirection=west;" vertex="1" parent="1">
          <mxGeometry x="300" y="694" width="390" height="76" as="geometry" />
        </mxCell>
        <mxCell id="0HscJDK9ijoEULKKqR28-8" value="" style="edgeStyle=orthogonalEdgeStyle;rounded=0;orthogonalLoop=1;jettySize=auto;html=1;movable=1;resizable=1;rotatable=1;deletable=1;editable=1;locked=0;connectable=1;fontFamily=Times New Roman;" edge="1" parent="1" source="0HscJDK9ijoEULKKqR28-9" target="0HscJDK9ijoEULKKqR28-11">
          <mxGeometry relative="1" as="geometry" />
        </mxCell>
        <mxCell id="0HscJDK9ijoEULKKqR28-9" value="BOOTLOADER" style="rounded=1;whiteSpace=wrap;html=1;shadow=1;gradientColor=#CCCC00;movable=1;resizable=1;rotatable=1;deletable=1;editable=1;locked=0;connectable=1;fontFamily=Times New Roman;" vertex="1" parent="1">
          <mxGeometry x="310" y="698" width="90" height="45" as="geometry" />
        </mxCell>
        <mxCell id="0HscJDK9ijoEULKKqR28-10" value="" style="edgeStyle=orthogonalEdgeStyle;rounded=0;orthogonalLoop=1;jettySize=auto;html=1;movable=1;resizable=1;rotatable=1;deletable=1;editable=1;locked=0;connectable=1;fontFamily=Times New Roman;" edge="1" parent="1" source="0HscJDK9ijoEULKKqR28-11" target="0HscJDK9ijoEULKKqR28-13">
          <mxGeometry relative="1" as="geometry" />
        </mxCell>
        <mxCell id="0HscJDK9ijoEULKKqR28-11" value="INITRD" style="rounded=1;whiteSpace=wrap;html=1;shadow=1;gradientColor=#CCCC00;movable=1;resizable=1;rotatable=1;deletable=1;editable=1;locked=0;connectable=1;fontFamily=Times New Roman;" vertex="1" parent="1">
          <mxGeometry x="414" y="698" width="80" height="45" as="geometry" />
        </mxCell>
        <mxCell id="0HscJDK9ijoEULKKqR28-12" style="edgeStyle=orthogonalEdgeStyle;rounded=0;orthogonalLoop=1;jettySize=auto;html=1;movable=1;resizable=1;rotatable=1;deletable=1;editable=1;locked=0;connectable=1;fontFamily=Times New Roman;" edge="1" parent="1" source="0HscJDK9ijoEULKKqR28-13" target="0HscJDK9ijoEULKKqR28-14">
          <mxGeometry relative="1" as="geometry">
            <Array as="points">
              <mxPoint x="599" y="720" />
              <mxPoint x="599" y="720" />
            </Array>
          </mxGeometry>
        </mxCell>
        <mxCell id="0HscJDK9ijoEULKKqR28-13" value="KERNEL" style="rounded=1;whiteSpace=wrap;html=1;shadow=1;gradientColor=#CCCC00;movable=1;resizable=1;rotatable=1;deletable=1;editable=1;locked=0;connectable=1;fontFamily=Times New Roman;" vertex="1" parent="1">
          <mxGeometry x="508" y="698" width="80" height="45" as="geometry" />
        </mxCell>
        <mxCell id="0HscJDK9ijoEULKKqR28-14" value="ROOTFS" style="rounded=1;whiteSpace=wrap;html=1;glass=0;shadow=1;gradientColor=#CCCC00;movable=1;resizable=1;rotatable=1;deletable=1;editable=1;locked=0;connectable=1;fontFamily=Times New Roman;" vertex="1" parent="1">
          <mxGeometry x="599" y="698" width="80" height="45" as="geometry" />
        </mxCell>
        <mxCell id="0HscJDK9ijoEULKKqR28-45" value="固件模拟加载流程" style="text;html=1;align=center;verticalAlign=middle;whiteSpace=wrap;rounded=0;movable=1;resizable=1;rotatable=1;deletable=1;editable=1;locked=0;connectable=1;fontFamily=Times New Roman;fontStyle=0" vertex="1" parent="1">
          <mxGeometry x="440" y="746" width="110" height="30" as="geometry" />
        </mxCell>
        <mxCell id="0HscJDK9ijoEULKKqR28-75" value="" style="whiteSpace=wrap;html=1;textShadow=0;gradientColor=#A8BBA2;gradientDirection=south;rounded=1;movable=1;resizable=1;rotatable=1;deletable=1;editable=1;locked=0;connectable=1;fontFamily=Times New Roman;" vertex="1" parent="1">
          <mxGeometry x="962" y="664.5" width="160" height="111" as="geometry" />
        </mxCell>
        <mxCell id="0HscJDK9ijoEULKKqR28-76" value="&lt;font style=&quot;font-size: 13px;&quot;&gt;&lt;span&gt;固件模拟部分(节点n)&lt;/span&gt;&lt;/font&gt;" style="text;html=1;align=center;verticalAlign=middle;whiteSpace=wrap;rounded=0;fontSize=13;movable=1;resizable=1;rotatable=1;deletable=1;editable=1;locked=0;connectable=1;fontFamily=Times New Roman;fontStyle=1" vertex="1" parent="1">
          <mxGeometry x="976.5" y="665" width="131" height="30" as="geometry" />
        </mxCell>
        <mxCell id="0HscJDK9ijoEULKKqR28-86" value="" style="rounded=1;whiteSpace=wrap;html=1;gradientColor=#a8bba2;movable=1;resizable=1;rotatable=1;deletable=1;editable=1;locked=0;connectable=1;fontFamily=Times New Roman;" vertex="1" parent="1">
          <mxGeometry x="962" y="389" width="160" height="241" as="geometry" />
        </mxCell>
        <mxCell id="0HscJDK9ijoEULKKqR28-114" value="&lt;b style=&quot;font-size: 18px;&quot;&gt;固件模拟与节点管理模块&lt;/b&gt;" style="text;html=1;align=center;verticalAlign=middle;whiteSpace=wrap;rounded=0;fontSize=18;movable=1;resizable=1;rotatable=1;deletable=1;editable=1;locked=0;connectable=1;fontFamily=Times New Roman;" vertex="1" parent="1">
          <mxGeometry x="599.5" y="776" width="211" height="29.5" as="geometry" />
        </mxCell>
        <mxCell id="0HscJDK9ijoEULKKqR28-117" value="&lt;span style=&quot;color: rgb(51, 51, 51); font-size: 9.75pt;&quot;&gt;PTP4L&lt;/span&gt;" style="ellipse;whiteSpace=wrap;html=1;shadow=1;gradientColor=#CCCC00;movable=1;resizable=1;rotatable=1;deletable=1;editable=1;locked=0;connectable=1;fontFamily=Times New Roman;" vertex="1" parent="1">
          <mxGeometry x="988" y="439.5" width="90" height="40" as="geometry" />
        </mxCell>
        <mxCell id="0HscJDK9ijoEULKKqR28-118" value="" style="ellipse;whiteSpace=wrap;html=1;shadow=1;gradientColor=#CCCC00;movable=1;resizable=1;rotatable=1;deletable=1;editable=1;locked=0;connectable=1;fontFamily=Times New Roman;" vertex="1" parent="1">
          <mxGeometry x="988" y="499.5" width="90" height="40" as="geometry" />
        </mxCell>
        <mxCell id="0HscJDK9ijoEULKKqR28-119" value="" style="ellipse;whiteSpace=wrap;html=1;shadow=1;gradientColor=#CCCC00;movable=1;resizable=1;rotatable=1;deletable=1;editable=1;locked=0;connectable=1;fontFamily=Times New Roman;" vertex="1" parent="1">
          <mxGeometry x="988" y="559.5" width="90" height="40" as="geometry" />
        </mxCell>
        <mxCell id="0HscJDK9ijoEULKKqR28-120" value="&lt;span style=&quot;color: rgb(51, 51, 51); font-size: 9.75pt;&quot;&gt;PROC1&lt;/span&gt;&lt;div&gt;&lt;span style=&quot;color: rgb(51, 51, 51); font-size: 9.75pt;&quot;&gt;STDOUT&lt;/span&gt;&lt;/div&gt;" style="ellipse;whiteSpace=wrap;html=1;shadow=1;gradientColor=#CCCC00;movable=1;resizable=1;rotatable=1;deletable=1;editable=1;locked=0;connectable=1;fontFamily=Times New Roman;" vertex="1" parent="1">
          <mxGeometry x="1000.5" y="441" width="97.5" height="47" as="geometry" />
        </mxCell>
        <mxCell id="0HscJDK9ijoEULKKqR28-121" value="&lt;font color=&quot;#333333&quot;&gt;&lt;span style=&quot;font-size: 13px;&quot;&gt;PROC2&lt;/span&gt;&lt;/font&gt;&lt;div&gt;&lt;font color=&quot;#333333&quot;&gt;&lt;span style=&quot;font-size: 13px;&quot;&gt;STDOUT&lt;/span&gt;&lt;/font&gt;&lt;/div&gt;" style="ellipse;whiteSpace=wrap;html=1;shadow=1;gradientColor=#CCCC00;movable=1;resizable=1;rotatable=1;deletable=1;editable=1;locked=0;connectable=1;fontFamily=Times New Roman;" vertex="1" parent="1">
          <mxGeometry x="1000.5" y="501" width="97.5" height="47" as="geometry" />
        </mxCell>
        <mxCell id="0HscJDK9ijoEULKKqR28-122" value="&lt;span style=&quot;color: rgb(51, 51, 51); font-size: 9.75pt;&quot;&gt;PROC3&lt;/span&gt;&lt;div&gt;&lt;span style=&quot;color: rgb(51, 51, 51); font-size: 9.75pt;&quot;&gt;STDOUT&lt;/span&gt;&lt;/div&gt;" style="ellipse;whiteSpace=wrap;html=1;shadow=1;gradientColor=#CCCC00;movable=1;resizable=1;rotatable=1;deletable=1;editable=1;locked=0;connectable=1;fontFamily=Times New Roman;" vertex="1" parent="1">
          <mxGeometry x="1000.5" y="561" width="97.5" height="47" as="geometry" />
        </mxCell>
        <mxCell id="0HscJDK9ijoEULKKqR28-123" value="ROOTFS" style="rounded=1;whiteSpace=wrap;html=1;glass=0;shadow=1;gradientColor=#CCCC00;movable=1;resizable=1;rotatable=1;deletable=1;editable=1;locked=0;connectable=1;fontFamily=Times New Roman;" vertex="1" parent="1">
          <mxGeometry x="994.5" y="699.5" width="80" height="45" as="geometry" />
        </mxCell>
        <mxCell id="0HscJDK9ijoEULKKqR28-124" value="ROOTFS" style="rounded=1;whiteSpace=wrap;html=1;glass=0;shadow=1;gradientColor=#CCCC00;movable=1;resizable=1;rotatable=1;deletable=1;editable=1;locked=0;connectable=1;fontFamily=Times New Roman;" vertex="1" parent="1">
          <mxGeometry x="1000" y="703" width="80" height="45" as="geometry" />
        </mxCell>
        <mxCell id="0HscJDK9ijoEULKKqR28-125" value="ROOTFS" style="rounded=1;whiteSpace=wrap;html=1;glass=0;shadow=1;gradientColor=#CCCC00;movable=1;resizable=1;rotatable=1;deletable=1;editable=1;locked=0;connectable=1;fontFamily=Times New Roman;" vertex="1" parent="1">
          <mxGeometry x="1006" y="706" width="80" height="45" as="geometry" />
        </mxCell>
        <mxCell id="0HscJDK9ijoEULKKqR28-126" value="ROOTFS" style="rounded=1;whiteSpace=wrap;html=1;glass=0;shadow=1;gradientColor=#CCCC00;movable=1;resizable=1;rotatable=1;deletable=1;editable=1;locked=0;connectable=1;fontFamily=Times New Roman;" vertex="1" parent="1">
          <mxGeometry x="1011" y="711.5" width="80" height="45" as="geometry" />
        </mxCell>
        <mxCell id="0HscJDK9ijoEULKKqR28-127" value="固件模拟&lt;div&gt;加载流程&lt;/div&gt;" style="rounded=1;whiteSpace=wrap;html=1;glass=0;shadow=1;gradientColor=#CCCC00;movable=1;resizable=1;rotatable=1;deletable=1;editable=1;locked=0;connectable=1;fontFamily=Times New Roman;" vertex="1" parent="1">
          <mxGeometry x="1016" y="714.75" width="80" height="45" as="geometry" />
        </mxCell>
        <mxCell id="0HscJDK9ijoEULKKqR28-128" value="&lt;span style=&quot;font-size: 13px;&quot;&gt;&lt;b&gt;输入数据/输出数据&lt;/b&gt;&lt;/span&gt;" style="text;html=1;align=center;verticalAlign=middle;whiteSpace=wrap;rounded=0;movable=1;resizable=1;rotatable=1;deletable=1;editable=1;locked=0;connectable=1;fontFamily=Times New Roman;" vertex="1" parent="1">
          <mxGeometry x="968" y="404.5" width="144" height="30" as="geometry" />
        </mxCell>
        <mxCell id="0HscJDK9ijoEULKKqR28-136" value="" style="whiteSpace=wrap;html=1;textShadow=0;gradientColor=#A8BBA2;gradientDirection=south;rounded=1;movable=1;resizable=1;rotatable=1;deletable=1;editable=1;locked=0;connectable=1;fontFamily=Times New Roman;" vertex="1" parent="1">
          <mxGeometry x="798" y="665" width="160" height="111" as="geometry" />
        </mxCell>
        <mxCell id="0HscJDK9ijoEULKKqR28-137" value="&lt;font style=&quot;font-size: 13px;&quot;&gt;&lt;span&gt;固件模拟部分(节点n-1)&lt;/span&gt;&lt;/font&gt;" style="text;html=1;align=center;verticalAlign=middle;whiteSpace=wrap;rounded=0;fontSize=13;movable=1;resizable=1;rotatable=1;deletable=1;editable=1;locked=0;connectable=1;fontFamily=Times New Roman;fontStyle=1" vertex="1" parent="1">
          <mxGeometry x="807" y="665.5" width="142" height="30" as="geometry" />
        </mxCell>
        <mxCell id="0HscJDK9ijoEULKKqR28-138" value="ROOTFS" style="rounded=1;whiteSpace=wrap;html=1;glass=0;shadow=1;gradientColor=#CCCC00;movable=1;resizable=1;rotatable=1;deletable=1;editable=1;locked=0;connectable=1;fontFamily=Times New Roman;" vertex="1" parent="1">
          <mxGeometry x="830.5" y="700" width="80" height="45" as="geometry" />
        </mxCell>
        <mxCell id="0HscJDK9ijoEULKKqR28-139" value="ROOTFS" style="rounded=1;whiteSpace=wrap;html=1;glass=0;shadow=1;gradientColor=#CCCC00;movable=1;resizable=1;rotatable=1;deletable=1;editable=1;locked=0;connectable=1;fontFamily=Times New Roman;" vertex="1" parent="1">
          <mxGeometry x="836" y="703.5" width="80" height="45" as="geometry" />
        </mxCell>
        <mxCell id="0HscJDK9ijoEULKKqR28-140" value="ROOTFS" style="rounded=1;whiteSpace=wrap;html=1;glass=0;shadow=1;gradientColor=#CCCC00;movable=1;resizable=1;rotatable=1;deletable=1;editable=1;locked=0;connectable=1;fontFamily=Times New Roman;" vertex="1" parent="1">
          <mxGeometry x="842" y="706.5" width="80" height="45" as="geometry" />
        </mxCell>
        <mxCell id="0HscJDK9ijoEULKKqR28-141" value="ROOTFS" style="rounded=1;whiteSpace=wrap;html=1;glass=0;shadow=1;gradientColor=#CCCC00;movable=1;resizable=1;rotatable=1;deletable=1;editable=1;locked=0;connectable=1;fontFamily=Times New Roman;" vertex="1" parent="1">
          <mxGeometry x="847" y="712" width="80" height="45" as="geometry" />
        </mxCell>
        <mxCell id="0HscJDK9ijoEULKKqR28-142" value="固件模拟&lt;div&gt;加载流程&lt;/div&gt;" style="rounded=1;whiteSpace=wrap;html=1;glass=0;shadow=1;gradientColor=#CCCC00;movable=1;resizable=1;rotatable=1;deletable=1;editable=1;locked=0;connectable=1;fontFamily=Times New Roman;" vertex="1" parent="1">
          <mxGeometry x="852" y="715.25" width="80" height="45" as="geometry" />
        </mxCell>
        <mxCell id="0HscJDK9ijoEULKKqR28-148" value="" style="rounded=1;whiteSpace=wrap;html=1;fillColor=none;dashed=1;dashPattern=12 12;arcSize=8;" vertex="1" parent="1">
          <mxGeometry x="720" y="390" width="220" height="240" as="geometry" />
        </mxCell>
        <mxCell id="0HscJDK9ijoEULKKqR28-149" value="&lt;b style=&quot;font-size: 18px;&quot;&gt;协议栈分析和数据收集模块&lt;/b&gt;" style="text;html=1;align=center;verticalAlign=middle;whiteSpace=wrap;rounded=0;fontSize=18;movable=1;resizable=1;rotatable=1;deletable=1;editable=1;locked=0;connectable=1;fontFamily=Times New Roman;" vertex="1" parent="1">
          <mxGeometry x="714.5" y="399.5" width="231" height="29.5" as="geometry" />
        </mxCell>
        <mxCell id="0HscJDK9ijoEULKKqR28-150" value="" style="rounded=1;whiteSpace=wrap;html=1;gradientColor=#a8bba2;movable=1;resizable=1;rotatable=1;deletable=1;editable=1;locked=0;connectable=1;fontFamily=Times New Roman;arcSize=9;" vertex="1" parent="1">
          <mxGeometry x="730.5" y="429" width="199.5" height="191" as="geometry" />
        </mxCell>
        <mxCell id="0HscJDK9ijoEULKKqR28-151" value="&lt;font style=&quot;font-size: 13px;&quot;&gt;仿真配置&lt;/font&gt;" style="shape=process;whiteSpace=wrap;html=1;backgroundOutline=1;gradientColor=#cccc00;fontFamily=Times New Roman;fontSize=12;" vertex="1" parent="1">
          <mxGeometry x="740" y="435" width="180" height="35" as="geometry" />
        </mxCell>
        <mxCell id="0HscJDK9ijoEULKKqR28-152" value="&lt;span style=&quot;font-size: 13px;&quot;&gt;数据收集&lt;/span&gt;" style="shape=process;whiteSpace=wrap;html=1;backgroundOutline=1;gradientColor=#cccc00;fontFamily=Times New Roman;fontSize=12;" vertex="1" parent="1">
          <mxGeometry x="740" y="479.75" width="180" height="35" as="geometry" />
        </mxCell>
        <mxCell id="0HscJDK9ijoEULKKqR28-153" value="&lt;font style=&quot;font-size: 13px;&quot;&gt;协议分析&lt;/font&gt;" style="shape=process;whiteSpace=wrap;html=1;backgroundOutline=1;gradientColor=#cccc00;fontFamily=Times New Roman;fontSize=12;" vertex="1" parent="1">
          <mxGeometry x="740.25" y="526" width="180" height="35" as="geometry" />
        </mxCell>
        <mxCell id="0HscJDK9ijoEULKKqR28-154" value="&lt;font style=&quot;font-size: 13px;&quot;&gt;报告生成&lt;/font&gt;" style="shape=process;whiteSpace=wrap;html=1;backgroundOutline=1;gradientColor=#cccc00;fontFamily=Times New Roman;fontSize=12;" vertex="1" parent="1">
          <mxGeometry x="740.25" y="571.5" width="180" height="35" as="geometry" />
        </mxCell>
        <mxCell id="0HscJDK9ijoEULKKqR28-155" value="" style="html=1;shadow=0;dashed=0;align=center;verticalAlign=middle;shape=mxgraph.arrows2.arrow;dy=0.56;dx=20.33;direction=north;notch=0;gradientColor=#E6E6E6;movable=1;resizable=1;rotatable=1;deletable=1;editable=1;locked=0;connectable=1;fontFamily=Times New Roman;rotation=90;" vertex="1" parent="1">
          <mxGeometry x="701.75" y="509.75" width="26" height="29.5" as="geometry" />
        </mxCell>
        <mxCell id="0HscJDK9ijoEULKKqR28-156" value="" style="html=1;shadow=0;dashed=0;align=center;verticalAlign=middle;shape=mxgraph.arrows2.arrow;dy=0.56;dx=20.33;direction=north;notch=0;gradientColor=#E6E6E6;movable=1;resizable=1;rotatable=1;deletable=1;editable=1;locked=0;connectable=1;fontFamily=Times New Roman;rotation=90;" vertex="1" parent="1">
          <mxGeometry x="933.38" y="508.38" width="26" height="32.25" as="geometry" />
        </mxCell>
        <mxCell id="0HscJDK9ijoEULKKqR28-166" style="edgeStyle=orthogonalEdgeStyle;rounded=0;orthogonalLoop=1;jettySize=auto;html=1;entryX=1;entryY=0.5;entryDx=0;entryDy=0;" edge="1" parent="1" source="0HscJDK9ijoEULKKqR28-159" target="0HscJDK9ijoEULKKqR28-157">
          <mxGeometry relative="1" as="geometry" />
        </mxCell>
        <mxCell id="0HscJDK9ijoEULKKqR28-159" value="改变传入数据包&lt;div&gt;待测试字段数据&lt;/div&gt;" style="shape=parallelogram;perimeter=parallelogramPerimeter;whiteSpace=wrap;html=1;fixedSize=1;gradientColor=#cccc00;" vertex="1" parent="1">
          <mxGeometry x="445.5" y="271.5" width="120" height="60" as="geometry" />
        </mxCell>
        <mxCell id="0HscJDK9ijoEULKKqR28-167" style="edgeStyle=orthogonalEdgeStyle;rounded=0;orthogonalLoop=1;jettySize=auto;html=1;entryX=1;entryY=0.5;entryDx=0;entryDy=0;" edge="1" parent="1" source="0HscJDK9ijoEULKKqR28-160" target="0HscJDK9ijoEULKKqR28-159">
          <mxGeometry relative="1" as="geometry" />
        </mxCell>
        <mxCell id="0HscJDK9ijoEULKKqR28-160" value="记录分析协议&lt;div&gt;漏洞测试结果&lt;/div&gt;" style="shape=parallelogram;perimeter=parallelogramPerimeter;whiteSpace=wrap;html=1;fixedSize=1;gradientColor=#cccc00;" vertex="1" parent="1">
          <mxGeometry x="576.5" y="271.5" width="120" height="60" as="geometry" />
        </mxCell>
        <mxCell id="0HscJDK9ijoEULKKqR28-161" value="&lt;div&gt;定义模糊测试&lt;div&gt;污点分析策略&lt;/div&gt;&lt;/div&gt;" style="shape=parallelogram;perimeter=parallelogramPerimeter;whiteSpace=wrap;html=1;fixedSize=1;gradientColor=#cccc00;" vertex="1" parent="1">
          <mxGeometry x="740" y="271" width="120" height="60" as="geometry" />
        </mxCell>
        <mxCell id="0HscJDK9ijoEULKKqR28-162" value="发现卫星通信&lt;div&gt;协议潜在漏洞&lt;/div&gt;" style="shape=parallelogram;perimeter=parallelogramPerimeter;whiteSpace=wrap;html=1;fixedSize=1;gradientColor=#cccc00;" vertex="1" parent="1">
          <mxGeometry x="994.5" y="271" width="120" height="60" as="geometry" />
        </mxCell>
        <mxCell id="0HscJDK9ijoEULKKqR28-165" value="" style="html=1;shadow=0;dashed=0;align=center;verticalAlign=middle;shape=mxgraph.arrows2.arrow;dy=0.56;dx=20.33;direction=north;notch=0;gradientColor=#E6E6E6;movable=1;resizable=1;rotatable=1;deletable=1;editable=1;locked=0;connectable=1;fontFamily=Times New Roman;rotation=-180;" vertex="1" parent="1">
          <mxGeometry x="350.5" y="331" width="26" height="58" as="geometry" />
        </mxCell>
        <mxCell id="0HscJDK9ijoEULKKqR28-157" value="传入数据包" style="shape=parallelogram;perimeter=parallelogramPerimeter;whiteSpace=wrap;html=1;fixedSize=1;gradientColor=#cccc00;" vertex="1" parent="1">
          <mxGeometry x="310" y="271.5" width="120" height="60" as="geometry" />
        </mxCell>
        <mxCell id="0HscJDK9ijoEULKKqR28-169" value="&lt;div&gt;生成协议漏洞&lt;div&gt;&lt;span style=&quot;background-color: initial;&quot;&gt;模糊测试报告&lt;/span&gt;&lt;/div&gt;&lt;/div&gt;" style="shape=parallelogram;perimeter=parallelogramPerimeter;whiteSpace=wrap;html=1;fixedSize=1;gradientColor=#cccc00;" vertex="1" parent="1">
          <mxGeometry x="868" y="271" width="120" height="60" as="geometry" />
        </mxCell>
      </root>
    </mxGraphModel>
  </diagram>
</mxfile>
